<svg width="20" height="21" fill="none" xmlns="http://www.w3.org/2000/svg"><path d="M13.125 12.375c0-.313.273-.625.625-.625H15c.313 0 .625.313.625.625v1.25a.642.642 0 0 1-.625.625h-1.25a.617.617 0 0 1-.625-.625v-1.25zm0-7.5c0-.313.273-.625.625-.625H15c.313 0 .625.313.625.625v1.25A.642.642 0 0 1 15 6.75h-1.25a.617.617 0 0 1-.625-.625v-1.25zm.625 5.625a.617.617 0 0 1-.625-.625v-1.25c0-.313.273-.625.625-.625H15c.313 0 .625.313.625.625v1.25A.642.642 0 0 1 15 10.5h-1.25zM17.5.5C18.867.5 20 1.633 20 3v15c0 1.406-1.133 2.5-2.5 2.5h-6.25a2.468 2.468 0 0 1-2.5-2.5V3c0-1.367 1.094-2.5 2.5-2.5h6.25zm0 1.875h-6.25a.642.642 0 0 0-.625.625v15c0 .352.273.625.625.625h6.25a.642.642 0 0 0 .625-.625V3c0-.313-.313-.625-.625-.625zm-10 5H2.812a.925.925 0 0 0-.937.938v9.374c0 .547.39.938.938.938h4.726c.117.742.43 1.367.899 1.875H2.811A2.8 2.8 0 0 1 0 17.687V8.313A2.826 2.826 0 0 1 2.813 5.5H7.5v1.875zM5.625 13c.313 0 .625.313.625.625v1.25a.642.642 0 0 1-.625.625h-1.25a.617.617 0 0 1-.625-.625v-1.25c0-.313.273-.625.625-.625h1.25zm0-3.75c.313 0 .625.313.625.625v1.25a.642.642 0 0 1-.625.625h-1.25a.617.617 0 0 1-.625-.625v-1.25c0-.313.273-.625.625-.625h1.25z" fill="#006F49"/></svg>