<svg width="33" height="32" fill="none" xmlns="http://www.w3.org/2000/svg"><path d="M19 9c0 1.125-.938 2-2 2-1.125 0-2-.875-2-2 0-1.063.875-2 2-2 1.063 0 2 .938 2 2zm12.938 9c.625 0 1.062.563 1 1.25C32.374 26.438 26.311 32 19 32h-4.063C7.625 32 1.563 26.437 1 19.25.937 18.625 1.375 18 2 18h2.938c4.312 0 8.375 2 11 5.375v-6c-.75.438-1.626.625-2.5.625-3.063 0-5.5-2.438-5.5-5.438 0-1.312.5-2.562 1.312-3.562-.875-.938-1.313-2.25-1.313-3.5 0-3.063 2.438-5.5 5.5-5.5C14.688 0 16 .5 17 1.375A5.25 5.25 0 0 1 20.5 0C23.563 0 26 2.438 26 5.5c0 1.25-.5 2.563-1.375 3.5C25.5 10 26 11.25 26 12.563c0 3-2.438 5.437-5.5 5.437-.875 0-1.75-.188-2.563-.625v6C20.625 20 24.688 18 29 18h2.938zm-16 12c0-1.625.124-2.688-.688-4.125C13.062 22.25 9.187 20 4.937 20H3.063c1 5.688 6.063 10 11.876 10h1zM17 13.562l.75 1.063C18.438 15.5 19.438 16 20.5 16c1.938 0 3.5-1.5 3.5-3.438 0-1.062-.563-2.062-1.438-2.75L21.5 9l1.063-.813C23.438 7.564 24 6.563 24 5.5 24 3.562 22.437 2 20.5 2c-1.063 0-2.063.563-2.75 1.438L17 4.5l-.813-1.063C15.5 2.563 14.5 2 13.438 2a3.494 3.494 0 0 0-3.5 3.5c0 1.063.563 2.063 1.438 2.75l1.063.75-1.063.813c-.875.687-1.438 1.687-1.438 2.75C9.938 14.5 11.5 16 13.438 16c1.063 0 2.063-.5 2.75-1.375L17 13.562zM19 30c5.875 0 10.875-4.313 11.875-10H29c-4.188 0-8.125 2.25-10.313 5.875C17.875 27.313 18 28.438 18 30h1z" fill="#C7D437"/></svg>