<svg width="40" height="33" fill="none" xmlns="http://www.w3.org/2000/svg"><path d="M0 12.125c0-.375.063-.75.25-1.125l4.875-8.875c.5-1 1.5-1.625 2.625-1.625h24.438c1.124 0 2.124.625 2.624 1.625L39.688 11c.187.375.312.75.312 1.125 0 1.313-1.125 2.375-2.438 2.375H36v17c0 .563-.5 1-1 1-.563 0-1-.438-1-1v-17H6v8h16v-5c0-.5.438-1 1-1 .5 0 1 .5 1 1v12a3 3 0 0 1-3 3H7c-1.688 0-3-1.313-3-3v-15H2.375A2.374 2.374 0 0 1 0 12.125zm37.563.375c.25 0 .437-.125.437-.375 0-.063-.063-.125-.063-.188l-4.874-8.874c-.188-.313-.5-.563-.876-.563H7.75c-.375 0-.688.25-.875.563L2 11.937v.188c0 .25.125.375.375.375h35.188zM7 30.5h14c.5 0 1-.438 1-1v-5H6v5c0 .563.438 1 1 1z" fill="#C7D437"/></svg>