<svg width="32" height="32" fill="none" xmlns="http://www.w3.org/2000/svg"><path d="m16 6.313 2.375-3.875C19.313.938 21 0 22.813 0H23c2.75 0 5 2.25 5 5 0 1.188-.375 2.188-1 3h2c1.625 0 3 1.375 3 3v4c0 1.313-.875 2.438-2 2.875V28c0 2.25-1.813 4-4 4H6c-2.25 0-4-1.75-4-4V17.875A3.05 3.05 0 0 1 0 15v-4a3 3 0 0 1 3-3h1.938C4.313 7.187 4 6.187 4 5c0-2.75 2.188-5 5-5h.125c1.813 0 3.5.938 4.438 2.438L16 6.312zM22.813 2c-1.125 0-2.125.625-2.75 1.5L17.25 8H23a3 3 0 0 0 3-3c0-1.625-1.375-3-3-3h-.188zm-8.125 6-2.813-4.5C11.25 2.625 10.25 2 9.125 2H9a3 3 0 0 0-3 3c0 1.688 1.313 3 3 3h5.688zM3 10c-.563 0-1 .5-1 1v4c0 .563.438 1 1 1h12v-6H3zm14 6h12c.5 0 1-.438 1-1v-4c0-.5-.5-1-1-1H17v6zm-2 2H4v10c0 1.125.875 2 2 2h9V18zm2 12h9c1.063 0 2-.875 2-2V18H17v12z" fill="#C7D437"/></svg>