<svg width="15" height="21" fill="none" xmlns="http://www.w3.org/2000/svg"><path d="M7.5 13.938c-.547 0-.938-.391-.938-.938 0-.508.391-.938.938-.938a.95.95 0 0 1 .938.938c0 .547-.43.938-.938.938zm0-3.438c-.547 0-.938-.39-.938-.938 0-.507.391-.937.938-.937a.95.95 0 0 1 .938.938c0 .546-.43.937-.938.937zm3.438 3.438c-.547 0-.938-.391-.938-.938 0-.508.39-.938.938-.938a.95.95 0 0 1 .937.938c0 .547-.43.938-.938.938zm0-3.438c-.547 0-.938-.39-.938-.938 0-.507.39-.937.938-.937a.95.95 0 0 1 .937.938c0 .546-.43.937-.938.937zm0 6.875c-.547 0-.938-.39-.938-.938 0-.507.39-.937.938-.937a.95.95 0 0 1 .937.938c0 .546-.43.937-.938.937zm-6.876 0c-.546 0-.937-.39-.937-.938 0-.507.39-.937.938-.937h3.125a.95.95 0 0 1 .937.938c0 .546-.43.937-.938.937H4.063zM12.5.5C13.867.5 15 1.633 15 3v15c0 1.406-1.133 2.5-2.5 2.5h-10A2.468 2.468 0 0 1 0 18V3C0 1.633 1.094.5 2.5.5h10zm.625 17.5V7.375H1.875V18c0 .352.273.625.625.625h10a.642.642 0 0 0 .625-.625zm0-12.5V3c0-.313-.313-.625-.625-.625h-10A.642.642 0 0 0 1.875 3v2.5h11.25zm-9.063 5c-.546 0-.937-.39-.937-.938 0-.507.39-.937.938-.937A.95.95 0 0 1 5 9.563c0 .546-.43.937-.938.937zm0 3.438c-.546 0-.937-.391-.937-.938 0-.508.39-.938.938-.938A.95.95 0 0 1 5 13c0 .547-.43.938-.938.938z" fill="#fff"/></svg>