<svg width="20" height="20" fill="none" xmlns="http://www.w3.org/2000/svg"><path d="M17.5 4.25c1.367 0 2.5 1.133 2.5 2.5v10c0 1.406-1.133 2.5-2.5 2.5h-15a2.468 2.468 0 0 1-2.5-2.5v-10c0-1.367 1.094-2.5 2.5-2.5H5V3C5 1.633 6.094.5 7.5.5h5C13.867.5 15 1.633 15 3v1.25h2.5zm-10-1.875A.642.642 0 0 0 6.875 3v1.25h6.25V3c0-.313-.313-.625-.625-.625h-5zm-5 3.75a.642.642 0 0 0-.625.625v3.75h16.25V6.75c0-.313-.313-.625-.625-.625h-15zm15 11.25a.642.642 0 0 0 .625-.625v-4.375H12.5V13c0 .703-.586 1.25-1.25 1.25h-2.5c-.703 0-1.25-.547-1.25-1.25v-.625H1.875v4.375c0 .352.273.625.625.625h15z" fill="#006F49"/></svg>