<svg width="18" height="21" fill="none" xmlns="http://www.w3.org/2000/svg"><path d="M14.25 20.5h-10C2.14 20.5.5 18.86.5 16.75v-2.813c0-.507.39-.937.938-.937a.95.95 0 0 1 .937.938v2.812c0 1.055.82 1.875 1.875 1.875h10c1.016 0 1.875-.82 1.875-1.875v-2.813c0-.507.39-.937.938-.937a.95.95 0 0 1 .937.938v2.812c0 2.07-1.68 3.75-3.75 3.75zm-4.375-6.484 5.313-5c.39-.352.39-.938.039-1.329-.352-.39-.938-.39-1.329-.039l-3.71 3.516V1.438A.95.95 0 0 0 9.25.5a.925.925 0 0 0-.938.938v9.726l-3.75-3.516c-.39-.351-.976-.351-1.328.04-.156.195-.234.43-.234.625 0 .273.078.507.273.703l5.313 5a.92.92 0 0 0 1.289 0z" fill="#006F49"/></svg>