<svg width="12" height="10" fill="none" xmlns="http://www.w3.org/2000/svg"><path d="M7.703.75c.322 0 .645.215.774.516.128.322.085.666-.15.923l-2.17 2.428v3.696a.67.67 0 0 1-.387.623.741.741 0 0 1-.73-.065L3.663 7.84c-.172-.13-.258-.322-.258-.559V4.617L1.215 2.19c-.236-.257-.28-.601-.15-.923A.873.873 0 0 1 1.837.75h5.865zm3.61 6.875c.365 0 .687.322.687.688a.692.692 0 0 1-.688.687h-2.75a.679.679 0 0 1-.687-.688c0-.365.3-.687.688-.687h2.75zm-3.438-2.75c0-.365.3-.688.688-.688h2.75c.365 0 .687.323.687.688a.692.692 0 0 1-.688.688h-2.75a.679.679 0 0 1-.687-.688zM11.313.75c.365 0 .687.322.687.688a.692.692 0 0 1-.688.687H9.938a.679.679 0 0 1-.688-.688c0-.365.3-.687.688-.687h1.374z" fill="#006F49"/></svg>