<svg width="19" height="19" fill="none" xmlns="http://www.w3.org/2000/svg"><path d="M9.75 5.008c2.46 0 4.492 2.031 4.492 4.492 0 2.5-2.031 4.492-4.492 4.492A4.468 4.468 0 0 1 5.258 9.5 4.493 4.493 0 0 1 9.75 5.008zm0 7.422c1.602 0 2.89-1.29 2.89-2.93a2.884 2.884 0 0 0-2.89-2.89c-1.64 0-2.93 1.288-2.93 2.89 0 1.64 1.328 2.93 2.93 2.93zm5.703-7.578a1.05 1.05 0 0 0-1.055-1.055 1.05 1.05 0 0 0-1.054 1.055 1.05 1.05 0 0 0 1.054 1.054 1.05 1.05 0 0 0 1.055-1.054zm2.969 1.054c.078 1.446.078 5.782 0 7.227-.078 1.406-.39 2.617-1.406 3.672C16 17.82 14.75 18.133 13.344 18.21c-1.446.078-5.781.078-7.227 0-1.406-.078-2.617-.39-3.672-1.406-1.015-1.055-1.328-2.266-1.406-3.672-.078-1.445-.078-5.781 0-7.227.078-1.406.39-2.656 1.406-3.672C3.5 1.22 4.711.906 6.117.828c1.446-.078 5.781-.078 7.227 0 1.406.078 2.656.39 3.672 1.406C18.03 3.25 18.344 4.5 18.422 5.906zm-1.875 8.75c.469-1.133.351-3.867.351-5.156 0-1.25.118-3.984-.351-5.156-.313-.742-.899-1.367-1.64-1.64-1.173-.47-3.907-.352-5.157-.352-1.29 0-4.023-.118-5.156.351a3.013 3.013 0 0 0-1.68 1.64C2.445 5.517 2.562 8.25 2.562 9.5c0 1.29-.117 4.023.352 5.156a2.962 2.962 0 0 0 1.68 1.68c1.133.469 3.867.352 5.156.352 1.25 0 3.984.117 5.156-.352.742-.313 1.367-.898 1.64-1.68z" fill="#fff"/></svg>