<svg width="191" height="137" fill="none" xmlns="http://www.w3.org/2000/svg"><path d="M134.151 39.043c0 21.564-17.501 39.041-39.077 39.041C73.498 78.084 56 60.607 56 39.043 56 17.485 73.498 0 95.074 0c21.576 0 39.077 17.485 39.077 39.043z" fill="#006F49"/><path d="M125.096 42.512a30.1 30.1 0 0 1-2.791 9.565 28.614 28.614 0 0 0-3.439-1.662 29.925 29.925 0 0 0-12.941-2.152c-8.638.473-16.222 4.552-21.37 10.687-.244-.133-.474-.281-.7-.419a25.981 25.981 0 0 1 3.493-8.833c.252-.007.495-.007.75-.017.09-.003.182-.017.271-.024 9.24-.59 17.247-5.308 22.336-12.243a30.735 30.735 0 0 0 2.329-3.725 29.7 29.7 0 0 0 3.396-11.858c.096-1.257.113-2.527.041-3.818 0-.034 0-.059-.003-.093a30.812 30.812 0 0 0-3.65-.027c-.093.007-.182.017-.268.02-15.17.976-27.015 13.043-28.067 27.83-.02.416-.034.828-.048 1.243a29.96 29.96 0 0 0-4.05 9.115 25.643 25.643 0 0 1-1.964-1.785 29.906 29.906 0 0 0 2.663-14.104 29.937 29.937 0 0 0-6.687-17.285 31.367 31.367 0 0 0-2.73-2.923C76.853 13.65 84.558 9.392 93.406 8.88c16.673-.885 30.899 11.845 31.854 28.493.004.189.004.368.01.55a30.776 30.776 0 0 1-.175 4.59v-.001zm-28.353 26.69c-4.649.247-9.11-.563-13.146-2.225a24.43 24.43 0 0 1-.203-2.012 28.524 28.524 0 0 1-.02-2.234c.776.398 1.566.782 2.39 1.112a29.934 29.934 0 0 0 12.942 2.149c8.642-.477 16.212-4.553 21.373-10.681a32.536 32.536 0 0 0 1.911-2.565c-4.735 9.26-14.109 15.82-25.246 16.455zM64.89 40.707c-.41-7.654 2.082-14.77 6.484-20.34a29.538 29.538 0 0 0-1.695 3.166 29.84 29.84 0 0 0-2.659 14.108 29.832 29.832 0 0 0 6.698 17.285 29.957 29.957 0 0 0 5.903 5.52 30.17 30.17 0 0 0-.134 4.46c-8.268-4.988-14.014-13.832-14.597-24.2zm64.36-3.55c-1.041-18.862-17.184-33.3-36.063-32.262-18.875 1.047-33.328 17.176-32.29 36.031.711 12.84 8.419 23.624 19.215 28.873a34.16 34.16 0 0 0 16.848 3.395c15.948-.885 28.741-12.534 31.696-27.5.312-1.585.518-3.203.601-4.847a33.93 33.93 0 0 0-.007-3.691z" fill="#FEFEFE"/><path d="M105.336 37.715a25.78 25.78 0 0 0 3.267-4.212 25.97 25.97 0 0 0 3.914-11.674c-11.459.879-20.665 9.006-23.38 19.615a25.434 25.434 0 0 0-.735 4.304 26.693 26.693 0 0 0 2.213-.274 26.099 26.099 0 0 0 14.721-7.76zm.796 14.444c-7.112.405-13.38 3.6-17.844 8.463a26.237 26.237 0 0 0 10.209 1.48 26.13 26.13 0 0 0 17.844-8.47 26.115 26.115 0 0 0-10.209-1.473zM72.509 26.918a26.29 26.29 0 0 0-1.598 10.508 26.102 26.102 0 0 0 4.69 13.5 26.364 26.364 0 0 0 1.588-10.502 26.086 26.086 0 0 0-4.68-13.506z" fill="#C7D437"/><path d="M4.569 93.024h15.819l-.781 4.153H8.42l-1.054 5.455h9.821l-.792 4.154h-9.85l-1.088 5.553h12l-.82 4.157H0l4.569-23.472zM28.603 99.462c.82 0 1.594.097 2.32.289.729.194 1.364.483 1.91.87.544.385.977.854 1.299 1.411.308.557.474 1.201.474 1.928 0 .769-.125 1.433-.374 1.99a4.457 4.457 0 0 1-1.011 1.433 5.552 5.552 0 0 1-1.431.984c-.532.264-1.09.485-1.67.666-.579.186-1.156.34-1.734.459-.581.129-1.126.248-1.62.36a7.047 7.047 0 0 0-1.692.577c-.484.255-.73.635-.73 1.158 0 .454.214.792.65 1.009.429.217 1.02.322 1.772.322.882 0 1.707-.126 2.468-.376.761-.251 1.574-.666 2.442-1.259.32.543.634 1.085.951 1.619.316.532.634 1.071.956 1.617a12.575 12.575 0 0 1-3.973 1.769c-.624.161-1.237.27-1.842.324-.6.056-1.182.085-1.755.085a9.892 9.892 0 0 1-2.435-.288c-.765-.195-1.424-.477-1.983-.852a4.273 4.273 0 0 1-1.325-1.398c-.33-.555-.497-1.21-.497-1.957 0-1.181.253-2.129.75-2.842a5.386 5.386 0 0 1 1.887-1.691c.77-.407 1.591-.713 2.475-.921.887-.201 1.715-.393 2.476-.577.763-.181 1.387-.389 1.891-.629.501-.237.75-.594.75-1.075 0-.338-.163-.626-.495-.866-.328-.241-.835-.357-1.515-.357-.707 0-1.44.091-2.2.286-.763.194-1.612.588-2.543 1.179l-1.7-3.205c.655-.409 1.275-.75 1.86-1.019a9.759 9.759 0 0 1 1.718-.631c.566-.15 1.141-.25 1.703-.309a18.194 18.194 0 0 1 1.773-.083zM47.494 106.923c.07-.293.101-.582.101-.852 0-.886-.275-1.55-.834-1.991a2.982 2.982 0 0 0-1.925-.664c-.795 0-1.484.217-2.064.664-.578.441-.985 1.21-1.21 2.297l-.617 3.03a4.11 4.11 0 0 0-.1.821c0 .455.087.836.257 1.142.172.304.383.555.649.747.262.193.549.336.868.425.318.094.632.136.956.136.862 0 1.58-.212 2.147-.648.568-.429.967-1.201 1.195-2.314l.577-2.793zm3.613 3.644c-.407 2.089-1.283 3.628-2.625 4.614-1.337.993-3.148 1.484-5.417 1.484a8.148 8.148 0 0 1-2.491-.377 5.919 5.919 0 0 1-2.095-1.136 5.744 5.744 0 0 1-1.453-1.897c-.362-.747-.546-1.621-.546-2.62a8.508 8.508 0 0 1 .137-1.532l.65-3.475c.384-2.091 1.25-3.648 2.593-4.667 1.338-1.027 3.077-1.534 5.217-1.534 1.02 0 1.956.15 2.809.445.853.295 1.576.708 2.171 1.24a5.794 5.794 0 0 1 1.377 1.91c.329.738.49 1.562.49 2.467 0 .525-.045 1.013-.13 1.467l-.687 3.611zM65.461 106.027a4.62 4.62 0 0 0 .101-.883c0-.635-.164-1.063-.495-1.291-.33-.224-.736-.338-1.211-.338-.522 0-1.186.148-1.992.441a16.35 16.35 0 0 0-2.27 1.018l-1.29 6.688c.724.363 1.344.602 1.87.729a7.09 7.09 0 0 0 1.603.186 3.27 3.27 0 0 0 1.844-.543c.546-.363.911-1.029 1.09-2.002l.75-4.005zm3.51 4.573c-.368 1.843-1.129 3.321-2.285 4.446-1.158 1.127-2.763 1.686-4.806 1.686-.591 0-1.274-.056-2.049-.17-.773-.117-1.541-.389-2.313-.825l-1.468 7.502h-4.3l4.572-23.574h3.991l.034 1.536c1.085-.595 2.074-1.025 2.945-1.294.877-.275 1.61-.412 2.204-.412 1.493 0 2.649.346 3.443 1.04.794.695 1.193 1.753 1.193 3.184 0 .59-.068 1.239-.204 1.941l-.958 4.94zM78.621 112.95c.587 0 1.082-.051 1.482-.167.398-.114.723-.262.971-.444.253-.181.44-.386.564-.614.123-.224.222-.466.289-.714a4.76 4.76 0 0 0 .186-.957c.036-.315.055-.528.055-.646 0-.544-.165-.93-.498-1.158-.33-.222-.755-.338-1.274-.338-.524 0-1.142.116-1.842.338-.707.228-1.41.525-2.117.887l-.716 3.305a8.615 8.615 0 0 0 1.589.389c.53.081.971.119 1.311.119zm-4.635-13.283h4.228l-1.027 5.246h.036c.34-.136.722-.268 1.141-.394.42-.123.84-.23 1.247-.322.41-.091.799-.163 1.177-.219.374-.058.685-.089.938-.089.725 0 1.399.109 2.01.327a4.681 4.681 0 0 1 1.587.916c.44.4.78.877 1.018 1.432.244.561.36 1.175.36 1.858v.273a17.816 17.816 0 0 1-.407 2.996 8.99 8.99 0 0 1-.835 2.093 5.012 5.012 0 0 1-1.433 1.601c-.602.445-1.329.788-2.181 1.025-.851.237-1.871.357-3.056.357a18.528 18.528 0 0 1-3.543-.376 15.443 15.443 0 0 1-2.11-.579 11.728 11.728 0 0 1-2.155-.989l3.006-15.156zM97.475 103.244c-1.003 0-1.78.3-2.334.899-.555.606-.985 1.416-1.28 2.438.224.022.45.034.664.034h.597c.844 0 1.53-.063 2.064-.186.53-.125.954-.279 1.26-.458.305-.184.52-.394.632-.631a1.57 1.57 0 0 0 .172-.667 1.57 1.57 0 0 0-.34-1.006c-.228-.284-.707-.423-1.435-.423zm.206-3.85c1.137 0 2.097.134 2.881.409.781.272 1.416.628 1.907 1.071.492.445.844.941 1.056 1.501.217.554.327 1.127.327 1.721 0 .953-.227 1.787-.665 2.503-.446.713-1.068 1.313-1.874 1.789-.807.476-1.77.838-2.885 1.089-1.114.248-2.35.373-3.715.373h-.716c-.229 0-.468-.011-.717-.033a3.289 3.289 0 0 0-.102.783c0 .843.268 1.44.801 1.791.537.351 1.222.526 2.063.526.524 0 1.109-.119 1.76-.356.644-.237 1.334-.655 2.06-1.246.086.115.232.334.429.651.19.315.398.658.626 1.02.231.362.439.698.629 1.004.195.307.338.516.432.631-1.278.907-2.505 1.473-3.684 1.706-1.184.221-2.299.34-3.34.34-.87 0-1.674-.106-2.423-.309a5.222 5.222 0 0 1-1.96-.988 4.738 4.738 0 0 1-1.326-1.723c-.333-.688-.499-1.536-.499-2.535 0-1.432.15-2.844.466-4.242.3-1.398.8-2.646 1.508-3.744a8.485 8.485 0 0 1 2.767-2.695c1.137-.69 2.536-1.037 4.194-1.037zM114.281 103.175c-.589 0-1.083.091-1.477.272-.403.181-.73.414-.995.698a3.121 3.121 0 0 0-.593.94 5.738 5.738 0 0 0-.306.985l-1.159 6.096c.341.184.82.343 1.43.476a7.927 7.927 0 0 0 1.741.206c.705 0 1.266-.083 1.685-.252.425-.172.746-.376.974-.615.23-.242.371-.481.439-.736.073-.248.107-.463.107-.646 0-.454-.157-.821-.461-1.107-.309-.284-.915-.425-1.827-.425h-1.19l.472-2.932h1.233c.614 0 1.068-.145 1.364-.44a1.46 1.46 0 0 0 .442-1.056c0-.387-.152-.727-.442-1.024-.296-.293-.771-.44-1.437-.44zm.239-3.818c1.184 0 2.169.132 2.95.394.788.262 1.408.594 1.86 1.004.456.409.777.865.958 1.362.179.503.273.99.273 1.466 0 .591-.186 1.237-.546 1.942-.365.704-.989 1.216-1.878 1.531.842.298 1.459.754 1.86 1.382.394.627.595 1.266.595 1.926 0 .7-.12 1.433-.36 2.196-.235.76-.658 1.455-1.262 2.075-.6.626-1.419 1.141-2.451 1.539-1.038.391-2.339.593-3.904.593-1.546 0-2.974-.211-4.281-.629-1.308-.423-2.46-.904-3.463-1.451l1.742-8.888c.158-.773.404-1.547.734-2.318a6.543 6.543 0 0 1 1.412-2.078c.613-.613 1.396-1.106 2.337-1.48.944-.378 2.088-.566 3.424-.566zM132.762 116.221c-1.11.3-2.285.445-3.512.445a7.892 7.892 0 0 1-2.424-.36 5.556 5.556 0 0 1-1.94-1.055 5.105 5.105 0 0 1-1.296-1.702c-.316-.669-.477-1.451-.477-2.335 0-.203.009-.42.036-.646.02-.226.054-.465.101-.718l.752-4.324c.385-2.065 1.258-3.601 2.623-4.599 1.365-1 3.033-1.5 5.013-1.5.522 0 1.066.04 1.621.118.555.08 1.097.215 1.618.412.522.19 1.016.456 1.482.781.463.333.882.744 1.245 1.243l-2.556 3.104c-.591-.705-1.222-1.165-1.892-1.383-.673-.214-1.206-.322-1.62-.322-.882 0-1.616.231-2.196.698-.58.467-.98 1.219-1.179 2.263l-.679 3.375a1.753 1.753 0 0 0-.055.337 3.372 3.372 0 0 0-.016.343c0 .818.268 1.402.801 1.755a3.106 3.106 0 0 0 1.76.528c.451 0 1.018-.103 1.703-.306.676-.206 1.347-.613 2.012-1.228l2.455 3.271c-1.141.913-2.265 1.51-3.379 1.805h-.001zM154.89 99.63l-2.247 4.941c-.412.818-.862 1.489-1.349 2.01-.488.523-1.097.919-1.829 1.192.774.273 1.289.682 1.535 1.226.253.547.443 1.238.585 2.077l.848 5.42h-4.502l-.548-4.599c-.102-1.023-.409-1.671-.895-1.944-.49-.273-1.132-.407-1.932-.407h-1.667l-1.229 6.95h-4.262l3.105-16.865h4.298l-1.196 6.065h1.634c.706 0 1.318-.145 1.828-.425.509-.284.995-.89 1.449-1.823l1.806-3.817h4.568zM162.358 99.666l-2.048 10.356c-.018.136-.043.268-.052.393-.008.125-.008.242-.008.358 0 .657.184 1.125.559 1.395a2.04 2.04 0 0 0 1.242.408c.547 0 1.155-.123 1.827-.374.671-.251 1.484-.658 2.435-1.226l2.218-11.31h4.362l-3.269 16.83h-4.027l-.072-1.465c-.653.386-1.255.693-1.804.919-.548.228-1.043.398-1.499.509a8.287 8.287 0 0 1-1.211.222 9.582 9.582 0 0 1-.965.051c-1.528 0-2.634-.406-3.33-1.225-.692-.819-1.036-1.896-1.036-3.234 0-.595.066-1.227.198-1.909l2.114-10.699h4.366zM184.008 97.145c-.96 0-1.73-.176-2.318-.527-.593-.354-1.052-.783-1.381-1.295a4.335 4.335 0 0 1-.648-1.673 6.334 6.334 0 0 1-.085-1.65h3.098c-.04.255-.047.521-.016.798.034.275.122.521.262.742.128.22.316.403.542.55.228.153.51.229.853.229.342 0 .653-.076.938-.228.281-.148.53-.338.754-.568.21-.233.394-.485.541-.76.144-.278.245-.533.291-.763h3.1a8.101 8.101 0 0 1-.577 1.758 5.813 5.813 0 0 1-2.883 2.891c-.696.334-1.52.496-2.471.496zm-3.547 2.52-2.044 10.356a3.672 3.672 0 0 0-.051.394 3.178 3.178 0 0 0-.018.358c0 .657.188 1.125.564 1.395a2.03 2.03 0 0 0 1.24.407c.546 0 1.155-.123 1.828-.373.67-.25 1.482-.66 2.435-1.225l2.218-11.312h4.365l-3.274 16.83h-4.023l-.069-1.465c-.66.388-1.26.694-1.811.919-.546.229-1.041.399-1.497.511a8.278 8.278 0 0 1-1.208.221 9.951 9.951 0 0 1-.97.051c-1.526 0-2.634-.407-3.33-1.225-.692-.819-1.039-1.897-1.039-3.234 0-.595.069-1.227.206-1.91l2.113-10.698h4.365zM31.18 130.268v6.063h-1.618v-6.063h-2.207v-1.38h6.037v1.38H31.18zM38.47 131.768c0-.521-.145-.897-.434-1.134a1.625 1.625 0 0 0-1.036-.351c-.403 0-.752.123-1.048.369-.295.244-.438.611-.438 1.101v.241h2.956v-.226zm-2.974 1.369v.371c0 .264.043.483.134.669.092.185.21.335.356.452.146.114.316.199.508.254.197.054.398.085.61.085.227 0 .51-.045.831-.122.327-.079.648-.267.97-.558.163.195.318.374.474.553.157.172.307.356.46.546-.422.411-.865.682-1.326.816-.472.136-.94.201-1.408.201-.432 0-.841-.051-1.224-.163a3.014 3.014 0 0 1-1.025-.504 2.41 2.41 0 0 1-.699-.847c-.17-.342-.255-.74-.255-1.203v-1.95c0-.451.08-.854.23-1.214.16-.36.375-.664.657-.915.277-.248.602-.443.974-.579a3.506 3.506 0 0 1 1.21-.201c.45 0 .866.065 1.247.192.382.132.705.32.978.566.275.246.49.543.64.892.148.351.229.751.229 1.199v1.46h-4.57zM46.103 136.33v-6.047h-3.127v6.047h-1.593v-7.426h6.312v7.426h-1.592zM51.566 132.108c0 .718-.054 1.335-.172 1.843-.112.51-.285.937-.508 1.279a2.833 2.833 0 0 1-.835.832 3.845 3.845 0 0 1-1.144.476l-.466-1.274c.283-.11.52-.226.721-.358.204-.134.363-.311.49-.542.126-.23.213-.527.271-.885.052-.359.086-.825.086-1.395v-3.182h5.375v7.428h-1.593v-6.047h-2.225v1.825zM61.68 131.438l-1.19 1.861-2.074 3.032h-1.424v-7.428h1.59v4.877h.06l1.095-1.64 2.164-3.237h1.441v7.428h-1.589v-4.893h-.074zM66.105 128.888v2.178c0 .485.12.832.356 1.033.237.199.544.3.924.3.269 0 .569-.052.909-.163.333-.115.662-.267.98-.468v-2.88h1.594v7.442h-1.594l.011-3.135c-.479.261-.895.431-1.26.509a4.388 4.388 0 0 1-.951.121c-.792 0-1.419-.216-1.876-.644-.457-.431-.682-1.073-.682-1.923v-2.37h1.589zM77.026 136.33v-3.074H73.9v3.074h-1.588v-7.426H73.9v2.972h3.125v-2.972h1.594v7.426h-1.594zM86.912 128.902h1.566v7.427h-1.566v-7.427zm-5.182 6.079h1.75c.376 0 .665-.088.867-.262.199-.174.297-.42.297-.729a.97.97 0 0 0-.267-.66c-.178-.201-.48-.302-.897-.302h-1.75v1.953zm-1.59 1.348v-7.443h1.59v2.807h1.858c.846 0 1.497.213 1.945.64.45.425.674.977.674 1.657 0 .319-.054.624-.155.908-.108.286-.271.53-.49.742-.224.21-.49.38-.82.501-.327.128-.707.188-1.148.188h-3.453zM93.074 127.835c-.423 0-.772-.069-1.048-.21a2.201 2.201 0 0 1-.678-.523 1.97 1.97 0 0 1-.371-.678 2.88 2.88 0 0 1-.13-.675h1.233c.014.099.038.208.083.318a1.08 1.08 0 0 0 .502.545.874.874 0 0 0 .409.096.953.953 0 0 0 .44-.096 1.019 1.019 0 0 0 .509-.545c.036-.11.056-.219.056-.318h1.215c-.02.21-.067.438-.15.675a2.132 2.132 0 0 1-.365.678 1.935 1.935 0 0 1-.664.523c-.273.141-.62.21-1.041.21zm1.623 3.603-1.187 1.86-2.072 3.033h-1.43v-7.427h1.596v4.875h.06l1.095-1.636 2.162-3.239h1.443v7.427H94.77v-4.893h-.072zM101.59 136.33v-7.442h1.594v2.988h.946c.3 0 .569-.063.811-.184.239-.118.438-.402.6-.843l.675-1.961h1.683l-.763 2.167a3.53 3.53 0 0 1-.429.894 1.358 1.358 0 0 1-.686.503c.352.101.605.28.768.533.164.255.296.565.419.937l.826 2.408h-1.742l-.617-2.01a1.956 1.956 0 0 0-.246-.552 1.059 1.059 0 0 0-.721-.477 3.32 3.32 0 0 0-.488-.035h-1.036v3.074h-1.594zM113.836 131.829c0-.279-.052-.518-.141-.713a1.443 1.443 0 0 0-.369-.472 1.41 1.41 0 0 0-.513-.261 1.832 1.832 0 0 0-1.108 0 1.372 1.372 0 0 0-.515.261 1.301 1.301 0 0 0-.369.472 1.635 1.635 0 0 0-.143.713v1.575c0 .563.156.957.465 1.187.314.23.685.343 1.112.343.182 0 .368-.027.558-.081.19-.056.36-.143.513-.262.147-.121.268-.279.369-.474.089-.192.141-.431.141-.713v-1.575zm1.589 1.877c0 .44-.088.829-.262 1.169a2.47 2.47 0 0 1-.71.848 3.125 3.125 0 0 1-1.014.512c-.385.114-.777.17-1.19.17-.422 0-.826-.056-1.216-.17a3.002 3.002 0 0 1-1.007-.512 2.481 2.481 0 0 1-.685-.848 2.578 2.578 0 0 1-.255-1.169v-2.161a2.5 2.5 0 0 1 .967-2.025c.291-.233.624-.41 1.005-.53a4.03 4.03 0 0 1 1.208-.177c.45 0 .864.058 1.247.177.381.12.716.299 1.001.536.284.235.51.521.669.861.159.34.242.734.242 1.17v2.149zM120.789 133.452l1.244-2.346 1.2-2.203h1.43v7.427h-1.591v-4.065h-.083l-1.719 3.103h-1.084l-.827-1.53-.811-1.529h-.089v4.021h-1.596v-7.427h1.464l1.182 2.236 1.188 2.313h.092zM130.88 132.218c0-.559-.145-.955-.436-1.186-.295-.23-.67-.346-1.133-.346a1.82 1.82 0 0 0-.557.092 1.628 1.628 0 0 0-.524.286 1.405 1.405 0 0 0-.374.492 1.629 1.629 0 0 0-.143.72v1.127c0 .281.042.521.13.716.082.194.192.351.338.474.138.116.309.203.506.259a2.25 2.25 0 0 0 1.197 0 1.47 1.47 0 0 0 .506-.259c.15-.123.262-.28.351-.474.092-.195.139-.435.139-.716v-1.185zm-3.019-2.415c.121-.11.259-.204.41-.277.152-.074.302-.139.458-.189.153-.051.309-.087.459-.104.15-.02.282-.032.391-.032.916 0 1.628.237 2.136.707.506.47.756 1.162.756 2.084v1.621c0 .45-.085.848-.264 1.194-.17.347-.407.635-.698.873a3.136 3.136 0 0 1-1.01.538 3.927 3.927 0 0 1-1.226.186c-.971 0-1.741-.235-2.305-.718-.567-.481-.851-1.174-.851-2.073v-1.965c0-.459.016-.881.05-1.266.026-.387.082-.742.167-1.078.083-.327.202-.635.331-.921.144-.284.321-.562.526-.835.161-.199.346-.373.567-.53.219-.154.457-.292.705-.42.248-.123.51-.244.781-.353.269-.11.53-.215.783-.315.13-.05.246-.094.356-.144.112-.044.224-.089.332-.136.109-.042.225-.089.349-.139.118-.051.255-.114.402-.18l.545 1.305c-.245.108-.446.197-.614.262-.161.065-.306.125-.434.172-.127.051-.24.096-.345.136-.103.041-.226.085-.349.135-.365.152-.687.293-.964.436a3.59 3.59 0 0 0-.73.474c-.204.174-.37.38-.495.619-.127.24-.212.53-.259.874l.04.059zM138.589 131.438l-1.186 1.861-2.073 3.032h-1.428v-7.428h1.593v4.877h.061l1.101-1.64 2.16-3.237h1.439v7.428h-1.591v-4.893h-.076zM146.503 136.33v-3.074h-3.124v3.074h-1.594v-7.426h1.594v2.972h3.124v-2.972h1.592v7.426h-1.592zM154.207 133.15h-1.784a2.93 2.93 0 0 0-.439.032c-.15.015-.288.06-.414.122-.125.07-.228.161-.318.277a.917.917 0 0 0-.123.499c0 .28.101.498.298.651.203.156.468.237.799.237.179 0 .356-.027.54-.072.179-.044.355-.1.532-.165a3.53 3.53 0 0 0 .495-.219c.156-.079.295-.152.414-.224v-1.138zm-.029 2.504c-.531.3-.976.502-1.348.593a3.973 3.973 0 0 1-1.011.143c-.744 0-1.321-.196-1.744-.597-.421-.403-.634-.953-.634-1.655 0-.409.097-.756.274-1.035.183-.28.403-.508.68-.683.264-.174.56-.301.873-.38.318-.082.611-.123.882-.123h2.057v-.454c0-.436-.126-.751-.376-.941-.249-.19-.636-.286-1.158-.286a4.61 4.61 0 0 0-.926.114c-.363.074-.73.262-1.097.563l-.741-1.185c.502-.382 1.003-.628 1.511-.744.506-.116.974-.17 1.406-.17 1.02 0 1.775.224 2.254.673.479.447.721 1.133.721 2.057v4.786h-1.444l-.134-.644-.045-.032zM160.489 130.268v6.063h-1.625v-6.063h-2.212v-1.38h6.044v1.38h-2.207z" fill="#006F49"/></svg>