<svg width="386" height="85" fill="none" xmlns="http://www.w3.org/2000/svg"><g clip-path="url(#a)"><path d="M99.075 18.195h24.286l-1.199 6.375h-17.174l-1.619 8.375h15.079l-1.217 6.378h-15.122l-1.671 8.525h18.422l-1.258 6.382H92.061l7.014-36.035zM135.972 28.079c1.258 0 2.447.148 3.56.443 1.121.299 2.096.741 2.934 1.336a6.795 6.795 0 0 1 1.994 2.166c.473.855.728 1.843.728 2.96 0 1.18-.192 2.2-.574 3.055a6.85 6.85 0 0 1-1.553 2.2 8.547 8.547 0 0 1-2.196 1.511c-.817.405-1.674.745-2.563 1.023a25.65 25.65 0 0 1-2.663.704c-.893.199-1.729.381-2.488.553-.98.21-1.839.505-2.598.886-.742.391-1.12.974-1.12 1.778 0 .697.329 1.215.997 1.548.659.333 1.566.495 2.721.495 1.354 0 2.621-.193 3.79-.577 1.168-.385 2.416-1.023 3.749-1.933.491.834.972 1.665 1.46 2.485l1.467 2.483a19.379 19.379 0 0 1-3.116 1.703 20.139 20.139 0 0 1-2.983 1.012c-.959.247-1.9.416-2.828.498-.921.086-1.814.131-2.694.131-1.326 0-2.578-.148-3.739-.443-1.174-.299-2.185-.732-3.045-1.308a6.548 6.548 0 0 1-2.033-2.146c-.506-.852-.763-1.858-.763-3.004 0-1.813.388-3.268 1.151-4.364a8.26 8.26 0 0 1 2.897-2.595 15.835 15.835 0 0 1 3.8-1.414 308.56 308.56 0 0 0 3.801-.886c1.172-.278 2.13-.597 2.903-.965.77-.364 1.152-.913 1.152-1.651 0-.519-.251-.962-.76-1.33-.505-.37-1.282-.548-2.326-.548-1.086 0-2.21.14-3.378.438-1.172.3-2.474.903-3.904 1.81l-2.611-4.92a26.285 26.285 0 0 1 2.855-1.565 15.13 15.13 0 0 1 2.639-.968c.87-.23 1.752-.385 2.615-.474a27.962 27.962 0 0 1 2.722-.128zM164.976 39.532c.106-.45.155-.893.155-1.308 0-1.36-.423-2.38-1.282-3.055-.856-.688-1.839-1.02-2.955-1.02-1.221 0-2.278.332-3.169 1.02-.886.676-1.511 1.856-1.858 3.525l-.946 4.652c-.102.49-.154.91-.154 1.26 0 .7.133 1.284.394 1.754.265.467.589.852.997 1.148.402.294.842.514 1.333.652.488.144.969.209 1.468.209 1.323 0 2.425-.326 3.295-.996.873-.658 1.485-1.843 1.836-3.553l.886-4.288zm5.546 5.596c-.625 3.206-1.969 5.569-4.03 7.083-2.053 1.524-4.833 2.279-8.317 2.279-1.333 0-2.604-.192-3.824-.58a9.09 9.09 0 0 1-3.216-1.744c-.936-.793-1.667-1.758-2.231-2.912-.556-1.146-.838-2.488-.838-4.023 0-.384.017-.762.051-1.15.035-.382.087-.787.159-1.202l.999-5.335c.588-3.21 1.918-5.6 3.98-7.165 2.054-1.577 4.724-2.355 8.01-2.355 1.566 0 3.003.23 4.312.683 1.309.453 2.419 1.088 3.333 1.905.9.824 1.601 1.8 2.114 2.932.504 1.133.752 2.397.752 3.787 0 .806-.068 1.555-.199 2.252l-1.055 5.545zM192.562 38.157c.103-.519.155-.971.155-1.356 0-.975-.252-1.63-.76-1.981-.506-.344-1.131-.519-1.86-.519-.8 0-1.82.227-3.057.676a25.194 25.194 0 0 0-3.484 1.563l-1.984 10.269c1.114.556 2.065.923 2.873 1.119.805.186 1.622.285 2.461.285 1.048 0 1.99-.278 2.831-.834.839-.557 1.399-1.58 1.674-3.073l1.151-6.15zm5.387 7.02c-.563 2.83-1.731 5.099-3.507 6.827-1.777 1.73-4.241 2.588-7.379 2.588-.906 0-1.954-.087-3.144-.26-1.188-.18-2.367-.598-3.552-1.268l-2.254 11.518h-6.601l7.02-36.192h6.126l.052 2.358c1.667-.913 3.185-1.573 4.521-1.987 1.348-.423 2.472-.632 3.385-.632 2.292 0 4.066.531 5.286 1.596 1.219 1.067 1.831 2.692 1.831 4.888 0 .907-.104 1.903-.313 2.981l-1.471 7.583zM212.766 48.786c.9 0 1.66-.079 2.274-.257.612-.175 1.111-.402 1.492-.68.388-.278.674-.594.865-.944.189-.344.341-.715.444-1.095.148-.488.24-.98.285-1.47.056-.484.086-.81.086-.992 0-.834-.254-1.428-.766-1.778-.505-.34-1.158-.519-1.956-.519-.803 0-1.752.178-2.827.519a21.85 21.85 0 0 0-3.251 1.362l-1.099 5.074c.8.279 1.615.478 2.44.598.814.124 1.491.182 2.013.182zm-7.116-20.393h6.491l-1.577 8.054h.054a20.92 20.92 0 0 1 1.753-.605 31.9 31.9 0 0 1 1.914-.494c.629-.14 1.227-.25 1.808-.336a9.65 9.65 0 0 1 1.439-.137c1.114 0 2.148.168 3.086.501.938.326 1.752.8 2.436 1.408a6.243 6.243 0 0 1 1.563 2.197c.375.862.554 1.805.554 2.853v.419a27.43 27.43 0 0 1-.207 2.248 24.96 24.96 0 0 1-.419 2.352c-.319 1.188-.745 2.263-1.281 3.214a7.71 7.71 0 0 1-2.2 2.458c-.924.683-2.04 1.209-3.35 1.573-1.306.364-2.872.549-4.69.549-.732 0-1.56-.045-2.477-.131a28.616 28.616 0 0 1-2.962-.447 23.777 23.777 0 0 1-3.241-.888 18.052 18.052 0 0 1-3.309-1.519l4.615-23.27zM241.714 33.886c-1.54 0-2.732.46-3.584 1.38-.852.93-1.513 2.173-1.966 3.742.344.035.691.052 1.02.052h.918c1.296 0 2.347-.096 3.168-.285.815-.192 1.464-.429 1.935-.703.468-.283.798-.605.969-.969.175-.368.265-.71.265-1.024 0-.59-.175-1.108-.523-1.544-.35-.436-1.085-.65-2.202-.65zm.316-5.913c1.746 0 3.22.207 4.422.63 1.199.418 2.175.964 2.928 1.644.756.683 1.296 1.445 1.622 2.303a7.19 7.19 0 0 1 .502 2.644c0 1.463-.348 2.743-1.021 3.842-.684 1.095-1.64 2.015-2.876 2.746-1.241.732-2.718 1.288-4.429 1.672-1.712.382-3.608.574-5.705.574h-1.099c-.351 0-.718-.017-1.1-.052-.103.42-.158.821-.158 1.202 0 1.294.412 2.211 1.23 2.75.824.54 1.876.807 3.168.807.805 0 1.702-.182 2.701-.546.99-.364 2.049-1.006 3.162-1.912.134.175.357.512.659 1 .292.483.612 1.008.963 1.564.353.557.673 1.072.965 1.542.299.471.519.793.663.968-1.962 1.394-3.845 2.263-5.656 2.62-1.818.34-3.529.522-5.127.522a14.12 14.12 0 0 1-3.721-.474c-1.152-.313-2.155-.82-3.01-1.518a7.272 7.272 0 0 1-2.035-2.644c-.511-1.057-.766-2.358-.766-3.893 0-2.197.23-4.366.715-6.512.46-2.146 1.23-4.062 2.316-5.748a13.008 13.008 0 0 1 4.248-4.137c1.745-1.06 3.893-1.593 6.439-1.593zM267.511 33.778c-.905 0-1.663.14-2.268.419a4.663 4.663 0 0 0-1.527 1.072c-.394.435-.7.916-.91 1.442a8.733 8.733 0 0 0-.471 1.513l-1.779 9.36c.525.28 1.26.525 2.195.73.952.213 1.835.316 2.674.316 1.082 0 1.944-.127 2.587-.388.652-.264 1.144-.576 1.495-.944.354-.37.57-.738.673-1.129.113-.381.165-.711.165-.992 0-.697-.241-1.26-.707-1.7-.475-.436-1.406-.652-2.805-.652h-1.828l.726-4.5h1.892c.942 0 1.64-.225 2.094-.677.446-.454.68-.993.68-1.62 0-.595-.234-1.117-.68-1.573-.454-.45-1.183-.677-2.206-.677zm.367-5.86c1.818 0 3.33.202 4.529.604 1.21.402 2.162.913 2.856 1.542.7.627 1.192 1.328 1.471 2.09.275.773.419 1.521.419 2.252 0 .907-.286 1.899-.839 2.981-.56 1.081-1.518 1.867-2.883 2.351 1.293.457 2.24 1.157 2.856 2.122.605.961.914 1.943.914 2.956 0 1.075-.185 2.2-.554 3.371-.36 1.167-1.01 2.235-1.937 3.187-.921.96-2.179 1.75-3.763 2.362-1.594.6-3.591.91-5.993.91-2.374 0-4.567-.323-6.573-.966-2.008-.648-3.777-1.386-5.317-2.227l2.674-13.645a18.655 18.655 0 0 1 1.127-3.56 10.067 10.067 0 0 1 2.168-3.189c.942-.94 2.144-1.699 3.588-2.273 1.45-.58 3.205-.868 5.257-.868zM295.887 53.808c-1.704.46-3.508.683-5.391.683-1.327 0-2.56-.182-3.722-.553-1.14-.364-2.143-.906-2.978-1.62a7.8 7.8 0 0 1-1.99-2.613c-.484-1.027-.732-2.228-.732-3.584 0-.313.014-.646.055-.992.031-.347.083-.714.155-1.102l1.154-6.64c.591-3.17 1.932-5.527 4.028-7.06 2.096-1.534 4.656-2.303 7.697-2.303.8 0 1.635.063 2.487.182.853.124 1.685.33 2.485.632.801.292 1.56.7 2.275 1.199a8.46 8.46 0 0 1 1.911 1.908l-3.924 4.766c-.907-1.082-1.877-1.789-2.904-2.123-1.034-.328-1.853-.494-2.488-.494-1.354 0-2.481.354-3.371 1.072-.89.717-1.505 1.87-1.811 3.474l-1.041 5.181a2.7 2.7 0 0 0-.086.518 5.595 5.595 0 0 0-.024.526c0 1.256.412 2.152 1.23 2.694.819.543 1.715.811 2.702.811.693 0 1.563-.158 2.614-.47 1.038-.316 2.069-.941 3.09-1.885l3.769 5.023c-1.752 1.4-3.477 2.317-5.188 2.77h-.002zM329.861 28.337l-3.451 7.585c-.632 1.256-1.322 2.286-2.071 3.086-.749.803-1.684 1.41-2.808 1.83 1.189.419 1.98 1.047 2.358 1.881.387.841.679 1.902.896 3.19l1.303 8.322h-6.911l-.841-7.062c-.158-1.57-.63-2.566-1.375-2.984-.753-.42-1.739-.625-2.966-.625h-2.56l-1.887 10.67h-6.542l4.767-25.892h6.597l-1.835 9.31h2.508c1.083 0 2.024-.222 2.807-.652.781-.436 1.527-1.366 2.224-2.798l2.773-5.86h7.014zM341.324 28.39l-3.144 15.9c-.027.21-.066.412-.079.604-.014.192-.014.371-.014.55 0 1.008.283 1.726.859 2.141a3.13 3.13 0 0 0 1.908.626c.838 0 1.772-.189 2.804-.574 1.031-.385 2.278-1.01 3.738-1.882l3.406-17.364h6.697l-5.02 25.838h-6.182l-.11-2.25c-1.004.595-1.928 1.066-2.77 1.412-.841.35-1.601.611-2.302.782-.7.176-1.319.29-1.859.341-.543.055-1.041.079-1.481.079-2.347 0-4.045-.625-5.113-1.882-1.062-1.257-1.591-2.911-1.591-4.965 0-.913.103-1.884.305-2.93l3.245-16.426h6.703zM374.564 24.522c-1.474 0-2.656-.27-3.559-.81-.911-.543-1.615-1.202-2.12-1.988a6.664 6.664 0 0 1-.994-2.569c-.158-.916-.203-1.76-.131-2.533h4.757c-.063.392-.072.8-.025 1.226.052.422.186.8.402 1.14.196.336.485.617.832.844.35.233.783.35 1.309.35.525 0 1.004-.116 1.44-.35a4.554 4.554 0 0 0 1.158-.872c.323-.357.605-.745.831-1.167.22-.426.375-.817.447-1.17h4.759a12.444 12.444 0 0 1-.886 2.698 9.08 9.08 0 0 1-1.729 2.537c-.725.762-1.636 1.405-2.697 1.902-1.069.512-2.333.762-3.794.762zm-5.446 3.869-3.137 15.9a5.47 5.47 0 0 0-.079.603c-.021.193-.027.371-.027.55 0 1.01.288 1.727.866 2.142a3.112 3.112 0 0 0 1.903.625c.839 0 1.773-.189 2.807-.573 1.028-.384 2.275-1.013 3.738-1.881l3.406-17.366h6.701l-5.027 25.838h-6.175l-.107-2.249c-1.014.595-1.934 1.065-2.78 1.411a15.81 15.81 0 0 1-2.298.784c-.695.175-1.316.288-1.856.34-.546.054-1.041.078-1.488.078-2.344 0-4.044-.625-5.113-1.881-1.062-1.257-1.595-2.912-1.595-4.965 0-.914.107-1.885.316-2.932l3.245-16.425h6.7v.001zM78.65 39.043c0 21.564-17.5 39.041-39.076 39.041S.5 60.607.5 39.043C.5 17.485 17.998 0 39.574 0 61.15 0 78.65 17.485 78.65 39.043z" fill="#006F49"/><path d="M69.596 42.512a30.088 30.088 0 0 1-2.79 9.566 28.654 28.654 0 0 0-3.44-1.663 29.926 29.926 0 0 0-12.941-2.151c-8.638.472-16.222 4.551-21.37 10.686-.244-.133-.474-.28-.7-.418a25.98 25.98 0 0 1 3.494-8.834c.25-.007.494-.007.749-.017.09-.003.182-.017.271-.024 9.24-.59 17.247-5.308 22.336-12.242a30.788 30.788 0 0 0 2.33-3.726 29.686 29.686 0 0 0 3.395-11.858 28.84 28.84 0 0 0 .04-3.818c0-.034 0-.058-.002-.092a30.787 30.787 0 0 0-3.65-.027c-.093.006-.182.016-.268.02-15.17.975-27.015 13.043-28.067 27.83-.02.415-.034.827-.048 1.242a29.96 29.96 0 0 0-4.05 9.115 25.641 25.641 0 0 1-1.964-1.785 29.907 29.907 0 0 0 2.663-14.103 29.938 29.938 0 0 0-6.686-17.286 31.353 31.353 0 0 0-2.732-2.923C21.354 13.65 29.06 9.393 37.907 8.881c16.673-.886 30.899 11.845 31.854 28.492.004.189.004.368.01.55a30.787 30.787 0 0 1-.175 4.59v-.001zm-28.353 26.69c-4.649.247-9.11-.563-13.147-2.225a24.43 24.43 0 0 1-.202-2.012 28.525 28.525 0 0 1-.02-2.234c.776.398 1.566.782 2.39 1.112a29.932 29.932 0 0 0 12.942 2.149c8.642-.477 16.212-4.553 21.373-10.681a32.344 32.344 0 0 0 1.91-2.564c-4.734 9.259-14.108 15.82-25.246 16.455zM9.39 40.707c-.41-7.654 2.082-14.77 6.484-20.339a29.527 29.527 0 0 0-1.695 3.166A29.84 29.84 0 0 0 11.52 37.64a29.832 29.832 0 0 0 6.698 17.286 29.944 29.944 0 0 0 5.903 5.52 30.171 30.171 0 0 0-.134 4.46c-8.268-4.99-14.014-13.832-14.597-24.2zm64.36-3.55c-1.04-18.862-17.184-33.3-36.063-32.262C18.812 5.942 4.359 22.071 5.397 40.927c.711 12.84 8.419 23.623 19.215 28.872a34.158 34.158 0 0 0 16.848 3.395C57.409 72.31 70.2 60.66 73.157 45.696c.313-1.586.518-3.204.6-4.848a33.701 33.701 0 0 0-.006-3.69z" fill="#FEFEFE"/><path d="M49.834 37.715a25.823 25.823 0 0 0 3.267-4.212 25.984 25.984 0 0 0 3.914-11.674c-11.46.88-20.665 9.006-23.38 19.615a25.438 25.438 0 0 0-.735 4.305 26.693 26.693 0 0 0 2.213-.275 26.095 26.095 0 0 0 14.72-7.76zm.796 14.444c-7.112.405-13.38 3.6-17.844 8.463a26.237 26.237 0 0 0 10.209 1.48 26.13 26.13 0 0 0 17.844-8.47 26.12 26.12 0 0 0-10.209-1.473zM17.008 26.92a26.292 26.292 0 0 0-1.598 10.508 26.104 26.104 0 0 0 4.69 13.499 26.362 26.362 0 0 0 1.588-10.502 26.086 26.086 0 0 0-4.68-13.506z" fill="#C7D437"/><path d="M98.238 75.373v9.307h-2.485v-9.307h-3.388v-2.119h9.267v2.119h-3.394zM109.429 77.677c0-.8-.223-1.378-.666-1.741a2.494 2.494 0 0 0-1.592-.54c-.618 0-1.154.19-1.608.567-.453.374-.673.937-.673 1.69v.37h4.539v-.346zm-4.566 2.1v.57c0 .406.065.742.205 1.027.141.285.324.515.547.694.224.175.485.305.78.391.303.083.611.13.938.13.348 0 .78-.069 1.275-.188.501-.12.993-.409 1.488-.856.25.3.488.575.729.85.239.263.47.545.704.837-.647.632-1.327 1.047-2.035 1.253-.724.209-1.442.309-2.161.309a6.648 6.648 0 0 1-1.879-.251 4.638 4.638 0 0 1-1.574-.773 3.695 3.695 0 0 1-1.072-1.301c-.262-.525-.392-1.136-.392-1.846v-2.995c0-.693.121-1.31.354-1.863a4.004 4.004 0 0 1 1.007-1.405c.425-.381.924-.68 1.495-.89a5.398 5.398 0 0 1 1.858-.308c.691 0 1.33.1 1.914.295a4.288 4.288 0 0 1 1.502.87c.423.377.752.833.983 1.368.227.54.351 1.154.351 1.84v2.243h-7.017zM121.145 84.68v-9.284h-4.8v9.284h-2.447V73.279h9.691v11.4h-2.444zM129.535 78.199c0 1.102-.082 2.05-.265 2.83-.171.782-.436 1.438-.779 1.963a4.338 4.338 0 0 1-1.281 1.277c-.509.319-1.093.57-1.757.73l-.715-1.955a5.932 5.932 0 0 0 1.107-.55c.312-.206.557-.477.753-.831.192-.354.326-.81.416-1.36.079-.552.13-1.266.13-2.142v-4.885h8.253V84.68h-2.445v-9.284h-3.416V78.2h-.001zM145.063 77.17l-1.825 2.855-3.185 4.656h-2.186V73.278h2.44v7.487h.092l1.682-2.516 3.322-4.971h2.213V84.68h-2.44V77.17h-.113zM151.858 73.255v3.344c0 .744.185 1.276.546 1.585.365.306.835.46 1.42.46.412 0 .872-.079 1.394-.25a7.066 7.066 0 0 0 1.505-.718v-4.422h2.447V84.68h-2.447l.018-4.814c-.736.402-1.375.663-1.935.783a6.757 6.757 0 0 1-1.461.186c-1.215 0-2.178-.333-2.879-.99-.701-.662-1.048-1.647-1.048-2.952v-3.639h2.44zM168.625 84.68v-4.72h-4.797v4.72h-2.439V73.279h2.439v4.562h4.797V73.28h2.447v11.4h-2.447zM183.799 73.277h2.405v11.402h-2.405V73.277zm-7.955 9.332h2.688c.577 0 1.021-.134 1.329-.402.306-.268.457-.645.457-1.12 0-.37-.137-.707-.409-1.012-.275-.309-.738-.463-1.377-.463h-2.688v2.997zm-2.44 2.07V73.253h2.44v4.309h2.852c1.299 0 2.299.326 2.987.982.69.652 1.034 1.5 1.034 2.544 0 .49-.083.957-.238 1.394a3.05 3.05 0 0 1-.752 1.14 3.623 3.623 0 0 1-1.257.769c-.503.195-1.086.288-1.763.288h-5.303zM193.26 71.638c-.649 0-1.185-.106-1.608-.323a3.376 3.376 0 0 1-1.042-.803 3.025 3.025 0 0 1-.569-1.04 4.411 4.411 0 0 1-.2-1.036h1.893c.021.15.059.319.128.487a1.65 1.65 0 0 0 .77.837c.189.1.405.148.628.148.258 0 .481-.047.677-.148.193-.095.354-.216.485-.364a1.56 1.56 0 0 0 .295-.473c.056-.168.086-.337.086-.487h1.866a4.443 4.443 0 0 1-.23 1.036 3.272 3.272 0 0 1-.561 1.04c-.257.32-.594.594-1.02.803-.419.217-.951.323-1.598.323zm2.492 5.53-1.822 2.857-3.181 4.656h-2.196V73.279h2.45v7.485h.093l1.68-2.513 3.32-4.972h2.216v11.402h-2.45v-7.512h-.11zM206.332 84.68V73.255h2.447v4.586h1.453a2.75 2.75 0 0 0 1.245-.28c.367-.183.673-.619.921-1.295l1.037-3.012h2.584l-1.172 3.327c-.185.553-.409 1.013-.659 1.373a2.092 2.092 0 0 1-1.052.773c.539.155.928.429 1.178.817.252.392.454.868.643 1.439l1.268 3.697h-2.673l-.948-3.086a3.017 3.017 0 0 0-.378-.847 1.602 1.602 0 0 0-.499-.499 1.591 1.591 0 0 0-.608-.234 5.065 5.065 0 0 0-.749-.054h-1.591v4.72h-2.447zM225.132 77.77c0-.43-.079-.796-.216-1.095a2.2 2.2 0 0 0-.567-.725 2.17 2.17 0 0 0-.787-.4 2.812 2.812 0 0 0-1.702 0 2.111 2.111 0 0 0-.79.4c-.236.18-.419.426-.567.725-.144.299-.22.666-.22 1.095v2.418c0 .865.241 1.468.715 1.822.482.354 1.051.526 1.708.526.278 0 .564-.042.856-.124.292-.086.553-.22.787-.402.226-.186.412-.429.567-.728.137-.294.216-.662.216-1.094V77.77zm2.44 2.88c0 .677-.135 1.274-.403 1.796a3.784 3.784 0 0 1-1.089 1.301 4.79 4.79 0 0 1-1.557.787 6.343 6.343 0 0 1-1.828.26 6.594 6.594 0 0 1-1.866-.26 4.607 4.607 0 0 1-1.546-.787 3.805 3.805 0 0 1-1.052-1.3c-.261-.523-.391-1.12-.391-1.796v-3.317c0-.68.134-1.277.405-1.8.265-.524.629-.96 1.079-1.31a4.73 4.73 0 0 1 1.543-.814 6.223 6.223 0 0 1 1.856-.271c.69 0 1.326.09 1.914.271.584.185 1.099.46 1.536.824.436.36.783.8 1.027 1.322.244.522.372 1.126.372 1.796v3.299zM235.812 80.262l1.911-3.602 1.842-3.382h2.195V84.68h-2.443v-6.241h-.127l-2.639 4.765h-1.664l-1.271-2.349-1.244-2.348h-.137v6.173h-2.45V73.278h2.247l1.815 3.433 1.824 3.55h.141zM251.304 78.367c0-.859-.222-1.466-.67-1.82-.453-.353-1.027-.532-1.738-.532-.279 0-.563.048-.856.14a2.52 2.52 0 0 0-.804.44c-.237.2-.432.45-.574.756-.151.308-.22.676-.22 1.105v1.73c0 .432.065.8.2 1.1.126.298.295.538.519.727.212.178.473.312.776.398a3.468 3.468 0 0 0 1.838 0 2.23 2.23 0 0 0 .777-.398c.23-.189.402-.43.539-.728.141-.299.213-.667.213-1.099v-1.82zm-4.635-3.708a2.73 2.73 0 0 1 .629-.425c.234-.114.464-.214.704-.29.234-.078.475-.133.705-.16.229-.031.433-.049.6-.049 1.406 0 2.499.364 3.279 1.085.777.722 1.161 1.785 1.161 3.2v2.489c0 .69-.13 1.301-.405 1.833a3.964 3.964 0 0 1-1.072 1.34 4.808 4.808 0 0 1-1.55.827 6.05 6.05 0 0 1-1.883.285c-1.491 0-2.673-.36-3.539-1.102-.87-.739-1.306-1.802-1.306-3.183v-3.017c0-.705.025-1.353.076-1.944.041-.594.127-1.14.257-1.655.128-.502.31-.974.509-1.414.22-.436.492-.862.807-1.281.248-.306.53-.573.87-.814.337-.236.701-.45 1.082-.645.382-.189.783-.374 1.199-.543.413-.167.815-.329 1.203-.483.2-.076.378-.144.547-.22.171-.068.344-.137.508-.21.169-.065.347-.137.536-.213.182-.078.393-.175.619-.277l.835 2.005c-.375.164-.684.302-.942.402-.247.1-.47.191-.666.263-.196.079-.368.148-.53.21-.157.062-.347.13-.535.206-.56.233-1.055.45-1.481.67-.43.216-.805.456-1.12.727a3.17 3.17 0 0 0-.76.951c-.196.368-.326.814-.399 1.343l.062.089zM263.137 77.17l-1.822 2.855-3.182 4.656h-2.192V73.278h2.446v7.487h.094l1.69-2.516 3.316-4.971h2.21V84.68h-2.444V77.17h-.116zM275.291 84.68v-4.72h-4.797v4.72h-2.447V73.279h2.447v4.562h4.797V73.28h2.443v11.4h-2.443zM287.119 79.798h-2.739a4.52 4.52 0 0 0-.673.049 1.83 1.83 0 0 0-.636.188 1.562 1.562 0 0 0-.488.426c-.12.188-.189.44-.189.765 0 .43.155.765.457.999.312.24.719.364 1.227.364.275 0 .547-.04.828-.11.275-.068.547-.154.818-.254.268-.095.522-.209.759-.335a9.41 9.41 0 0 0 .636-.344v-1.748zm-.045 3.845c-.814.46-1.498.77-2.069.91a6.085 6.085 0 0 1-1.552.22c-1.142 0-2.028-.302-2.677-.917-.647-.618-.973-1.463-.973-2.541 0-.628.148-1.16.419-1.59a3.42 3.42 0 0 1 1.045-1.047 4.344 4.344 0 0 1 1.34-.584 5.41 5.41 0 0 1 1.354-.188h3.158v-.697c0-.67-.193-1.153-.578-1.445-.381-.292-.976-.44-1.776-.44-.381 0-.853.055-1.422.175-.557.114-1.121.402-1.684.865l-1.138-1.819c.77-.588 1.54-.965 2.32-1.143a9.657 9.657 0 0 1 2.158-.261c1.567 0 2.725.343 3.46 1.033.736.686 1.107 1.74 1.107 3.158v7.348h-2.217l-.206-.989-.069-.049v.001zM296.764 75.373v9.308h-2.494v-9.308h-3.396v-2.119h9.278v2.119h-3.388z" fill="#006F49"/></g><defs><clipPath id="a"><path fill="#fff" transform="translate(.5)" d="M0 0h384.797v85H0z"/></clipPath></defs></svg>