<svg width="20" height="19" fill="none" xmlns="http://www.w3.org/2000/svg"><path d="M17.813.75C18.983.75 20 1.766 20 2.938v11.874a3.443 3.443 0 0 1-3.438 3.438H2.813A2.8 2.8 0 0 1 0 15.437V3.876c0-.508.39-.938.938-.938a.95.95 0 0 1 .937.938v11.563c0 .546.39.937.938.937.507 0 .937-.39.937-.938v-12.5C3.75 1.766 4.727.75 5.938.75h11.875zm.312 14.063V2.937a.336.336 0 0 0-.313-.312H5.938a.308.308 0 0 0-.312.313v12.5c0 .351-.078.664-.195.937h11.133c.859 0 1.562-.664 1.562-1.563zm-7.813-4.688a.95.95 0 0 1 .938.938c0 .546-.43.937-.938.937h-2.5c-.546 0-.937-.39-.937-.938 0-.507.39-.937.938-.937h2.5zm5.626 0a.95.95 0 0 1 .937.938c0 .546-.43.937-.938.937h-2.5c-.546 0-.937-.39-.937-.938 0-.507.39-.937.938-.937h2.5zm-5.626 3.125a.95.95 0 0 1 .938.938c0 .546-.43.937-.938.937h-2.5c-.546 0-.937-.39-.937-.938 0-.507.39-.937.938-.937h2.5zm5.626 0a.95.95 0 0 1 .937.938c0 .546-.43.937-.938.937h-2.5c-.546 0-.937-.39-.937-.938 0-.507.39-.937.938-.937h2.5zm-.313-9.375c.664 0 1.25.586 1.25 1.25v2.5c0 .703-.586 1.25-1.25 1.25h-7.5c-.703 0-1.25-.547-1.25-1.25v-2.5c0-.664.547-1.25 1.25-1.25h7.5z" fill="#006F49"/></svg>