<svg width="23" height="21" fill="none" xmlns="http://www.w3.org/2000/svg"><path d="M8.75 15.813c0 .546-.43.937-.938.937-.546 0-.937-.39-.937-.938v-3.124c0-.508.39-.938.938-.938a.95.95 0 0 1 .937.938v3.124zm2.5-4.063a.95.95 0 0 1 .938.938v3.124c0 .547-.43.938-.938.938-.547 0-.938-.39-.938-.938v-3.124c0-.508.391-.938.938-.938zm4.375 4.063c0 .546-.43.937-.938.937-.546 0-.937-.39-.937-.938v-3.124c0-.508.39-.938.938-.938a.95.95 0 0 1 .937.938v3.124zM9.492.617c.43.235.625.82.39 1.29L6.68 8h9.101l-3.203-6.094c-.234-.468-.039-1.054.39-1.289.47-.234 1.055-.039 1.29.39L17.89 8h3.672a.95.95 0 0 1 .937.938c0 .546-.43.937-.938.937h-.78l-2.188 8.75c-.313 1.094-1.29 1.875-2.422 1.875H6.289c-1.133 0-2.11-.781-2.422-1.875L1.72 9.875H.937c-.546 0-.937-.39-.937-.938C0 8.43.39 8 .938 8H4.57l3.633-6.992c.235-.43.82-.625 1.29-.39zm-3.789 17.54a.622.622 0 0 0 .586.468h9.883a.622.622 0 0 0 .586-.469l2.07-8.281H3.633l2.07 8.281z" fill="#006F49"/></svg>