<svg width="20" height="19" fill="none" xmlns="http://www.w3.org/2000/svg"><path d="M1.875 1.688v15.624c0 .547-.43.938-.938.938-.546 0-.937-.39-.937-.938V1.688C0 1.18.39.75.938.75a.95.95 0 0 1 .937.938zM5 1.375v16.25a.642.642 0 0 1-.625.625.617.617 0 0 1-.625-.625V1.375c0-.313.273-.625.625-.625.313 0 .625.313.625.625zm3.125.313v15.624c0 .547-.43.938-.938.938-.546 0-.937-.39-.937-.938V1.688c0-.507.39-.937.938-.937a.95.95 0 0 1 .937.938zm4.375 0v15.624c0 .547-.43.938-.938.938-.546 0-.937-.39-.937-.938V1.688c0-.507.39-.937.938-.937a.95.95 0 0 1 .937.938zm5.625 0c0-.508.39-.938.938-.938a.95.95 0 0 1 .937.938v15.624c0 .547-.43.938-.938.938-.546 0-.937-.39-.937-.938V1.688zm-2.5-.313c0-.313.273-.625.625-.625.313 0 .625.313.625.625v16.25a.642.642 0 0 1-.625.625.617.617 0 0 1-.625-.625V1.375z" fill="#006F49"/></svg>