<svg width="18" height="19" fill="none" xmlns="http://www.w3.org/2000/svg"><path d="M17.75 6.18c0 1.21-.43 2.383-1.21 3.32.78.977 1.21 2.148 1.21 3.36 0 2.968-2.46 5.39-5.43 5.39-1.21 0-2.383-.39-3.32-1.172a5.33 5.33 0 0 1-3.36 1.172 5.401 5.401 0 0 1-5.39-5.39A5.33 5.33 0 0 1 1.422 9.5C.64 8.562.25 7.39.25 6.18.25 3.21 2.672.75 5.64.75c1.212 0 2.383.43 3.36 1.21A5.186 5.186 0 0 1 12.32.75c2.97 0 5.43 2.46 5.43 5.43zm-3.125 4.062-.781-.742.781-.703c.781-.664 1.25-1.602 1.25-2.617a3.568 3.568 0 0 0-3.555-3.555c-1.015 0-1.953.469-2.617 1.25L9 4.656l-.742-.781c-.664-.781-1.602-1.25-2.617-1.25-1.954 0-3.516 1.602-3.516 3.555 0 1.015.43 1.953 1.21 2.617l.782.703-.781.742a3.396 3.396 0 0 0-1.211 2.617 3.501 3.501 0 0 0 3.516 3.516c1.015 0 1.953-.43 2.617-1.21L9 14.382l.703.781a3.397 3.397 0 0 0 2.617 1.211c1.953 0 3.555-1.563 3.555-3.516 0-1.015-.469-1.953-1.25-2.617zM9 6.375A3.134 3.134 0 0 1 12.125 9.5 3.11 3.11 0 0 1 9 12.625c-1.758 0-3.125-1.367-3.125-3.125A3.11 3.11 0 0 1 9 6.375zm0 4.375c.664 0 1.25-.547 1.25-1.25 0-.664-.586-1.25-1.25-1.25-.703 0-1.25.586-1.25 1.25 0 .703.547 1.25 1.25 1.25z" fill="#006F49"/></svg>