<svg width="20" height="21" fill="none" xmlns="http://www.w3.org/2000/svg"><path d="M9.688.813c5.312 0 9.687 4.375 9.687 9.687 0 5.352-4.375 9.688-9.688 9.688A9.686 9.686 0 0 1 0 10.5C0 5.187 4.336.812 9.688.812zm4.453 6.601a.662.662 0 0 0 0-.39c0-.079-.079-.196-.118-.235-.117-.117-.312-.117-.39-.117-.352 0-.938.195-3.633 1.328a244.61 244.61 0 0 0-5.625 2.422c-.469.195-.703.351-.742.547-.04.312.469.43 1.054.625.508.156 1.172.351 1.524.351.312 0 .664-.117 1.055-.39 2.617-1.797 3.984-2.696 4.062-2.696.078 0 .156-.039.195 0 .079.079.079.157.04.196-.04.195-2.5 2.46-2.657 2.617-.547.547-1.172.898-.195 1.523.82.547 1.289.899 2.148 1.446.547.351.977.78 1.524.742.273-.04.547-.274.664-1.016.351-1.68.976-5.43 1.094-6.953z" fill="#fff"/></svg>