<svg width="18" height="19" fill="none" xmlns="http://www.w3.org/2000/svg"><path d="M1.21 2C2.423.75 4.415.75 8.399.75h.665c3.984 0 5.976 0 7.187 1.25 1.25 1.21 1.25 3.203 1.25 7.188v.664c0 3.984 0 5.976-1.25 7.187-1.21 1.211-3.203 1.211-7.188 1.211h-.664c-3.984 0-5.976 0-7.187-1.21C0 15.827 0 13.835 0 9.851v-.665C0 5.204 0 3.212 1.21 2zm1.72 4.102c.117 4.53 2.382 7.265 6.367 7.265h.234V10.79c.703.078 1.367.352 1.875.82a3.707 3.707 0 0 1 1.133 1.758h2.07a5.61 5.61 0 0 0-1.093-2.148c-.547-.625-1.172-1.133-1.914-1.485.664-.39 1.21-.937 1.68-1.562.429-.625.741-1.328.898-2.07h-1.875c-.43 1.445-1.64 2.734-2.774 2.851V6.102H7.656v5.039C6.484 10.828 5 9.42 4.922 6.1H2.93z" fill="#fff"/></svg>