<svg width="14" height="15" fill="none" xmlns="http://www.w3.org/2000/svg"><path d="M7 .25c-3.938 0-6.89 3.281-7 7v1.477c0 1.12.875 2.023 1.996 2.023h.492A1.01 1.01 0 003.5 9.738V6.102c0-.575-.465-1.04-1.012-1.04h-.492a.809.809 0 00-.273.055A5.691 5.691 0 017 1.59a5.7 5.7 0 015.25 3.5c-.082 0-.164-.027-.273-.027h-.493c-.546 0-.984.464-.984 1.039v3.636c0 .575.438 1.012.984 1.012h.493c.246 0 .492-.027.71-.11v.547a1.08 1.08 0 01-1.093 1.094H8.559a1.322 1.322 0 00-1.121-.656h-.875c-.739 0-1.313.602-1.313 1.313 0 .738.574 1.312 1.285 1.312h.902c.465 0 .903-.246 1.122-.656h3.035A2.41 2.41 0 0014 11.188V7.25c-.137-3.719-3.09-7-7-7zM1.996 6.375h.192v3.063h-.192c-.383 0-.683-.329-.683-.711V7.059c.027-.383.3-.684.683-.684zm9.98 3.063h-.164V6.374h.165c.382 0 .656.328.683.684 0 .082.027.136.027.191v1.477c0 .382-.328.71-.71.71z" fill="#005DB4"/></svg>