<svg width="16" height="14" fill="none" xmlns="http://www.w3.org/2000/svg"><path d="M7.625 1.625L7.969 2l.375-.344A4.452 4.452 0 0112.25.406 4.465 4.465 0 0116 4.813v.156a4.727 4.727 0 01-1.5 3.437l-5.656 5.281c-.219.22-.531.313-.844.313-.344 0-.656-.094-.875-.313l-5.656-5.28A4.698 4.698 0 010 4.968v-.157C0 2.626 1.563.75 3.719.407c1.406-.25 2.875.219 3.906 1.219 0 .031-.031 0 0 0zm.344 2.5L6.562 2.687a3.056 3.056 0 00-2.593-.812A2.958 2.958 0 001.5 4.813v.156c0 .906.344 1.75 1 2.343L8 12.438l5.469-5.124A3.144 3.144 0 0014.5 4.969v-.157c0-1.468-1.063-2.687-2.5-2.937a3.056 3.056 0 00-2.594.813L7.97 4.125z" fill="#C4D7E8"/></svg>