<svg width="154" height="55" fill="none" xmlns="http://www.w3.org/2000/svg"><path d="M29.866 15.654c-.593-.593-1.582-.99-2.373-.99-.99 0-1.78.397-2.374.99l-9.296 9.301c-.594.594-.99 1.584-.99 2.375 0 .99.396 1.781.99 2.375l15.032 15.04s.198.198.198.396 0 .198-.198.396l-2.769 2.77s-.198.198-.395.198c-.198 0-.198 0-.396-.198L6.724 27.726s-.198-.198-.198-.396 0-.198.198-.396l20.571-20.58s.198-.199.396-.199c.197 0 .198 0 .395.198l9.89 9.895s.198.198.396.198.198 0 .396-.198l.79-.792c.594-.593.99-1.583.99-2.374 0-.99-.396-1.781-.99-2.375l-9.296-9.301C29.67.812 28.68.416 27.89.416c-.99 0-1.78.396-2.374.99l-23.54 23.55c-.593.593-.989 1.583-.989 2.374 0 .99.396 1.781.99 2.375l23.538 23.55c.593.593 1.582.99 2.373.99.792 0 1.78-.397 2.374-.99l5.736-5.74c.594-.593.99-1.583.99-2.374 0-.792-.396-1.781-.99-2.375l-4.747-4.75 8.308-8.311c.593-.594.989-1.583.989-2.375 0-.99-.396-1.78-.99-2.375l-9.692-9.3zm-2.175 18.603s-.198.198-.396.198-.198 0-.396-.198l-6.33-6.333s-.197-.198-.197-.396 0-.198.198-.396L26.9 20.8s.197-.198.395-.198.198 0 .396.198l6.33 6.332s.197.198.197.396 0 .198-.198.396l-6.33 6.333zm23.142 5.541v.198h-2.176v-9.895c0-.198 0-.593.198-.791.198-.198.396-.198.791-.198h3.956c.594 0 .99 0 1.583.198.395.198.79.396 1.186.791.396.396.594.594.792 1.188.198.395.198.791.198 1.385 0 .198 0 .594-.198.99 0 .395-.198.791-.594 1.187-.198.396-.593.791-1.187.99-.593.197-1.186.395-2.175.395h-2.374v3.562zm3.56-7.124v-.396c0-.198-.197-.396-.197-.396l-.396-.395c-.198-.198-.395-.198-.791-.198H51.03v2.968h1.978c.593 0 .989-.198 1.187-.396 0-.395.198-.791.198-1.187zm12.065 7.322h-4.945c-.593 0-.989 0-1.384-.198a2.731 2.731 0 01-.791-.594 1.512 1.512 0 01-.396-.99c0-.395-.198-.79-.198-.989V32.08c0-.396 0-.792.198-.99.198-.395.198-.593.593-.99.198-.197.594-.395.99-.593.395-.198.79-.198 1.384-.198h4.747v1.979h-4.154c-.395 0-.593 0-.79.198-.199.198-.199.396-.199.792v1.187h4.748v1.781h-4.748v1.781c0 .396 0 .594.198.792.198.198.396.198.791.198h4.352v1.781c-.395 0-.396.198-.396.198zm10.88-6.333l-.792 1.385-1.384 2.969c-.198.198-.198.395-.396.593-.198 0-.395.198-.593.198h-.791c-.198 0-.396 0-.594-.198-.198 0-.198-.197-.395-.593l-.99-1.98-.989-2.176v6.135h-1.978V30.1c0-.396 0-.594.198-.792.198-.198.396-.198.791-.198h.99c.395 0 .593 0 .593.198.198.198.198.396.396.594l1.78 3.76.989 2.177.989-2.375 1.582-3.562c.198-.198.198-.396.396-.594.198-.198.395-.198.791-.198h.791c.396 0 .594 0 .791.198.198.198.198.396.198.792v9.895h-1.978v-6.333h-.395zm14.045.792c0 .99 0 1.78-.198 2.375a3.827 3.827 0 01-.99 1.78c-.395.594-.988.792-1.581 1.188-.594.198-1.385.396-2.176.396-1.583 0-2.77-.594-3.56-1.583-.792-.99-1.188-2.375-1.188-4.156 0-.792.198-1.583.396-2.375a3.827 3.827 0 01.989-1.781c.396-.396.99-.792 1.582-1.187.594-.198 1.187-.396 1.978-.396.792 0 1.583.198 2.176.396a3.076 3.076 0 011.583 1.187c.395.396.79.99.989 1.781v2.375zm-2.572.198c0-.396 0-.99-.198-1.386 0-.395-.197-.791-.395-1.187s-.396-.594-.791-.791c-.396-.198-.792-.199-1.187-.199-.396 0-.791 0-.99.198-.395.198-.593.396-.79.792-.198.396-.396.594-.396 1.187 0 .396-.198.792-.198 1.386 0 .593 0 .99.198 1.583 0 .396.198.792.396 1.187.198.396.395.594.79.792.397.198.594.198 1.188.198.395 0 .79-.198 1.186-.198.396-.198.594-.396.792-.792.198-.395.395-.791.395-1.187v-1.583zm13.65 5.343h-2.176v-4.552h-4.351v4.552h-2.176V29.111h2.176v4.156h4.351v-4.155h2.176v10.884zm9.889-8.906h-2.769v8.906h-2.374V31.09h-2.967a.426.426 0 01-.395-.395v-1.584h8.505v1.584c.198.197.198.395 0 .395zm-58.748-7.124c.594 0 .99 0 1.385-.198s.791-.198 1.187-.395h.395l.198.197.593 1.188c0 .198.198.198 0 .396 0 0 0 .198-.197.198-.594.395-1.187.593-1.78.791-.594.198-1.187.198-1.78.198-.792 0-1.583-.198-2.177-.396a3.076 3.076 0 01-1.582-1.187 3.827 3.827 0 01-.989-1.781c-.198-.792-.198-1.583-.198-2.375s.198-1.583.396-2.375a3.827 3.827 0 01.989-1.78 3.07 3.07 0 011.582-1.188c.594-.198 1.385-.396 1.978-.396.594 0 .99 0 1.583.198.593 0 .989.198 1.582.594.198 0 .198.197.198.197v.396l-.396 1.188c0 .198-.198.198-.198.198h-.395c-.396-.198-.791-.198-.99-.396-.395 0-.592-.198-.988-.198s-.791 0-1.187.198c-.395.198-.593.396-.791.791l-.594 1.188c-.197.396-.197.99-.197 1.385 0 .594 0 .99.197 1.385 0 .396.198.792.396 1.188.198.395.593.593.791.791 0-.198.594 0 .99 0zm11.076-.396h-3.56l-.593 1.98c0 .197 0 .197-.198.197h-2.374v-.198l3.363-9.894c0-.198.197-.396.197-.396 0-.198.198-.198.198-.198s.198-.198.396-.198h1.78c.198 0 .198 0 .396.198l.198.198c0 .198.197.198.197.396l3.363 9.894v.198s0 .198-.198.198h-2.176s-.197 0-.197-.198l-.792-2.177zm-3.164-1.979h2.571l-.593-1.979-.594-2.176-.593 2.177-.791 1.979zm16.616 4.156h-2.176v-4.551h-4.351v4.551h-2.176V14.863h2.176v4.156h4.351v-4.157h2.176v10.686c.198.198.198.198 0 .198zm9.89-8.905h-2.77v8.905h-2.373v-8.905h-2.77a.426.426 0 01-.395-.396v-1.583h8.505v1.583c.198.396 0 .396-.197.396zm9.494 8.905h-4.945c-.594 0-.99 0-1.385-.198-.396-.197-.593-.395-.99-.593a1.512 1.512 0 01-.395-.99c0-.396-.197-.791-.197-.99v-5.145c0-.395 0-.791.197-1.187.198-.396.198-.594.594-.99.198-.197.593-.395.989-.593.395-.198.791-.198 1.384-.198h4.748v1.979H93.36c-.396 0-.594 0-.791.198-.198.198-.198.396-.198.791v1.188h4.747V20.8H92.37v1.781c0 .396 0 .594.199.792.197.197.395.197.79.197h4.354v1.782l-.198.395zm5.538-3.562l-1.978 3.364c0 .198-.198.198-.198.198h-2.373s-.198 0-.198-.198v-.198l3.362-5.343-3.165-4.947v-.198l.198-.198h2.176l.198.198 1.78 3.166 1.78-3.166c0-.198.198-.198.198-.198h2.176c.198 0 .198 0 .198.198v.198l-2.967 4.947 3.362 5.541v.198s0 .198-.197.198h-2.374l-.198-.198-1.78-3.562zm15.231 3.364v.198h-2.176c-.198 0-.395-.198-.395-.396v-8.707h-4.352v8.905h-1.978a.426.426 0 01-.396-.396v-9.697c0-.396 0-.593.198-.791.198-.198.396-.198.791-.198h7.121c.396 0 .594 0 .791.198.198.198.198.396.198.791V25.55h.198zm4.748.001v.197h-2.176v-9.895c0-.197 0-.593.198-.791.198-.198.396-.198.791-.198h3.957c.593 0 .989 0 1.582.198.396.198.791.396 1.187.791.395.396.593.594.791.99.198.396.198.792.198 1.385 0 .198 0 .594-.198.99 0 .396-.198.791-.593 1.187-.198.396-.594.792-1.187.99-.594.198-1.187.395-2.176.395h-2.176v3.76h-.198zm3.561-7.125v-.396c0-.198-.198-.395-.198-.395l-.396-.396c-.197 0-.395-.198-.791-.198h-1.978v2.968h1.978c.594 0 .989-.198 1.187-.395 0-.396.198-.792.198-1.188zm13.648 1.979c0 .99-.198 1.78-.198 2.375a3.816 3.816 0 01-.989 1.78c-.395.594-.989.792-1.582 1.188-.593.198-1.385.396-2.176.396-1.582 0-2.769-.594-3.56-1.583-.792-.99-1.187-2.375-1.187-4.156 0-.792.198-1.583.395-2.375a3.834 3.834 0 01.989-1.781c.396-.396.989-.792 1.583-1.187.593-.198 1.187-.396 1.978-.396.791 0 1.582.198 2.176.396a3.074 3.074 0 011.582 1.187c.396.396.791.99.989 1.781-.198.594 0 1.385 0 2.375zm-2.571 0c0-.396 0-.99-.198-1.386 0-.395-.198-.791-.396-1.187-.197-.396-.395-.594-.791-.791-.395-.198-.791-.198-1.187-.198-.395 0-.791 0-.989.198-.395.197-.593.395-.791.791-.198.396-.395.594-.395 1.188 0 .395-.198.791-.198 1.385 0 .593 0 .99.198 1.583 0 .396.197.792.395 1.187.198.396.396.594.791.792.396.198.594.198 1.187.198.396 0 .791 0 1.187-.198s.593-.396.791-.792c.198-.395.396-.791.396-1.187v-1.583zm13.647-.792l-.791 1.385-1.385 2.969c-.197.198-.197.396-.395.594-.198 0-.396.198-.594.198h-.791c-.198 0-.395 0-.593-.198 0 0-.198-.198-.396-.594l-.989-1.98-.989-2.176v6.135h-1.978V16.05c0-.396 0-.594.198-.792.198-.197.395-.197.791-.197h.989c.396 0 .594 0 .594.197.197.198.197.396.395.594l1.78 3.76.989 2.177.989-2.375 1.583-3.562c.198-.198.198-.396.395-.594.198-.197.396-.197.792-.197h.791c.395 0 .593 0 .791.197.198.198.198.396.198.792v9.895h-2.176v-6.333h-.198z" fill="#fff"/></svg>