<svg width="13" height="13" fill="none" xmlns="http://www.w3.org/2000/svg"><path d="M11.25 8.023L8.953 7.04c-.515-.234-1.101-.07-1.453.352l-.633.773a7.017 7.017 0 01-2.531-2.508l.797-.633c.398-.351.562-.937.351-1.43L4.477 1.25A1.22 1.22 0 003.07.547l-2.132.492C.375 1.156 0 1.65 0 2.234A10.263 10.263 0 0010.266 12.5c.586 0 1.078-.375 1.171-.938l.493-2.132a1.182 1.182 0 00-.68-1.407zm-.398 1.149l-.493 2.133c0 .023-.046.07-.093.07-5.04 0-9.164-4.102-9.164-9.14a.1.1 0 01.093-.094l2.133-.493.024-.023c.046 0 .07.047.093.07l.985 2.297c.023.047.023.094-.024.117l-1.148.938a.572.572 0 00-.14.68A8.018 8.018 0 006.75 9.359c.234.118.54.07.703-.14l.938-1.149c.023-.023.07-.047.117-.023l2.297.984c.047.047.07.094.047.14z" fill="#FE5603"/></svg>