<svg width="19" height="17" fill="none" xmlns="http://www.w3.org/2000/svg"><path d="M3 .5c.344 0 .656.281.719.625l.062.375h13.125c.657 0 1.157.656.969 1.281l-1.688 6a.976.976 0 01-.968.719H5.313l.28 1.5h9.657a.76.76 0 01.75.75.74.74 0 01-.75.75H4.969a.736.736 0 01-.719-.594L2.375 2H.75A.722.722 0 010 1.25.74.74 0 01.75.5H3zM14.844 8l1.406-5H4.094l.937 5h9.813zM4 15a1.5 1.5 0 011.5-1.5c.813 0 1.5.688 1.5 1.5a1.5 1.5 0 01-1.5 1.5A1.48 1.48 0 014 15zm12 0a1.5 1.5 0 01-1.5 1.5A1.48 1.48 0 0113 15a1.5 1.5 0 011.5-1.5c.813 0 1.5.688 1.5 1.5z" fill="#005DB4"/></svg>