<svg width="20" height="20" fill="none" xmlns="http://www.w3.org/2000/svg"><path d="M2.871 12.5C3.89 15.694 6.805 18 10.242 18 14.527 18 18 14.418 18 10s-3.473-8-7.758-8c-2.871 0-5.378 1.609-6.72 4M5.88 7H2V3" stroke="#64696E" stroke-width="2" stroke-linecap="round" stroke-linejoin="round"/><path d="M8.773 14.667v-8h3.818c.506 0 .992.18 1.35.502.358.321.559.757.559 1.212 0 .455-.201.89-.56 1.212a2.024 2.024 0 01-1.35.502H7.5m5.09 2.286H7.5" stroke="#64696E" stroke-width="2" stroke-linecap="round" stroke-linejoin="round"/></svg>