<svg width="20" height="20" fill="none" xmlns="http://www.w3.org/2000/svg"><path d="M9.451 3.885c.17-.513.927-.513 1.098 0l1.15 3.468c.214.644.823 1.07 1.499 1.07h3.724a.55.55 0 01.343.998l-3.013 2.143a1.54 1.54 0 00-.576 1.743l1.15 3.467c.158.474-.41.955-.89.613l-3.014-2.143a1.595 1.595 0 00-1.844 0l-3.013 2.143c-.482.342-1.05-.139-.892-.613l1.151-3.467a1.54 1.54 0 00-.576-1.743L2.735 9.421l-.29.407.29-.407a.55.55 0 01.343-.998h3.724c.676 0 1.285-.426 1.498-1.07l1.151-3.468z" fill="#FB923C" stroke="#FB923C"/></svg>