<svg width="24" height="24" fill="none" xmlns="http://www.w3.org/2000/svg"><path d="M4.24 12.25a4.19 4.19 0 0 1-1.24-3 4.25 4.25 0 0 1 7.94-2.11h1.12A4.24 4.24 0 0 1 15.75 5 4.25 4.25 0 0 1 20 9.25c0 1.17-.5 2.25-1.24 3L11.5 19.5l-7.26-7.25zm15.22.71A5.247 5.247 0 0 0 15.75 4c-1.75 0-3.3.85-4.25 2.17A5.218 5.218 0 0 0 7.25 4 5.25 5.25 0 0 0 2 9.25c0 1.45.59 2.75 1.54 3.71l7.96 7.96 3.98-3.98 3.98-3.98z" fill="#1D1D1D"/><path d="M4.24 12.25a4.19 4.19 0 0 1-1.24-3 4.25 4.25 0 0 1 7.94-2.11h1.12A4.24 4.24 0 0 1 15.75 5 4.25 4.25 0 0 1 20 9.25c0 1.17-.5 2.25-1.24 3L11.5 19.5l-7.26-7.25z" fill="#1D1D1D"/></svg>