<svg xmlns="http://www.w3.org/2000/svg" viewBox="0 0 1254 1113.2" style="enable-background:new 0 0 1254 1113.2" xml:space="preserve"><path d="M396.8 266.7c-24.5 9-49.1 13.8-74 14.5-11.1.3-30.2.5-43.2-.3-21.6-1.3-42.8-5.3-63.5-12-21.2-6.9-41.9-15.2-64-18.9-7.1-1.2-21 3.9-27.7 6.8-.2.1-.3.3-.3.5 3.7 26 10.8 97.1-24.8 107.4-6.9 2-17.1 1.1-24.9 1.1-10.3 0-17.6-3.5-22.6-12.7-22.8-42.4 17.4-81.5 51.8-97.8.6-.3.9-.9.8-1.5-2.6-23.2-6.4-36.6-15.4-67.4-2.1-7-7.4-19.2-11.2-27.6-2.7-5.9-3.9-12.3-3.6-18.7.6-12 .6-21.4 1.5-19.9 24 39.4 39.6 81.9 46.9 127.7.1.4.5.7.9.7h.1c8.8-2 16.1-2.1 26.5-2.2 24.1-.3 41.8 5.7 70.4 14 24.8 7.2 49.5 13.2 75 15.3 5.5.5 11 .4 16.4-.1 30-3 58.4-11.3 85.4-24.9.3-.1.5-.4.5-.7 3.3-58.2 12.8-116.3 32-171.5 4.4-12.6 10.1-26.8 18.3-37.9 5.6-7.7 10.6-10 20.2-9.9 7.8 0 18.4-1.1 25.3 1.3 19 6.6 29.1 33.8 32.1 51 3 17.5 1.5 37.8-3.3 55.5-13.9 51.4-50.9 92.8-98 116.7-.3.1-.5.4-.5.7-1.4 43.1.4 82.6 4.1 126.2 3.5 41.2 6.7 82.3 9.8 123.3 0 .2.2.4.4.3.1 0 .1 0 .2-.1 41-26.1 86-44 132.3-58.2.7-.2 1.1-.8 1-1.5-3-42.8-5.1-85.7-5.9-128.5-3.5-180.5 22.9-265.5 50.1-275.2 2.6-.9 23.6-4.5 19.9-1.1-24.5 22.6-53.6 106.3-46.3 280.8 1.6 38.9 2.7 77.9 5 117 0 .4.4.7.8.7h.1c78.3-19.8 141.9-46.7 176.2-63.1C857.7 335.3 993 228.4 904.5 125c-27.4-32-74.6-36.8-61.1-38.9 30.7-4.8 82.5 3.4 118.2 67.9 27.6 49.8 12.8 183.1-215.8 258-36 11.8-99.4 28.6-148.7 42.8-.9.3-1.5 1.1-1.4 2 5.8 85 18.7 172.1 31.4 256.3 0 .2.2.3.3.3s.1 0 .1-.1c27-19.3 53-30.7 86.8-32.1 7-.3 17.2-.3 30.8-.2 8.3.1 15 .5 20 1 45.2 5.2 86.5 29.1 117.5 61.7.2.2.5.4.9.3 18.9-.5 38.8-.9 57.6 1.1 23.1 2.4 46.1 6.1 69.1 9 28.4 3.7 57 6.2 85.6 7.7 20.5 1.1 40.6.3 60.9-2.7 20.5-3 42.7-9.8 57.1-25.5.2-.2 24.5 1.2 23.4 2.6-20.7 25.5-59.5 30.1-89.8 31.2-62.1 2.2-123.5-1-185.2-8.7-18.5-2.3-37-4.6-55.5-7-5.4-.7-10-.2-15 .9-.3.1-.5.3-.4.6 0 .1.1.2.1.2 11.9 13.8 20.9 28.9 27 45.3 7.6 20.2 9.9 45.2.5 65.3-6.1 12.9-16.5 18.9-30.4 18.8-9.5-.1-19.1-.2-28.5-.3-45-.5-61.3-54.4-48.9-89.8 6.9-19.7 20.1-34.2 39.6-43.3.2-.1.2-.3.2-.5 0 0 0-.1-.1-.1-32.4-30.6-66.2-53.9-110.9-61-3.4-.5-6.7-.6-10-.3-40 4.3-72 27.6-97.8 57.2-.2.2-.3.6-.3.9 11.5 81 19.6 163.7 15.5 244.9-1.1 22-5.2 86.2-30.8 95.4-7 2.5-19.9 1.2-28.1 1.2-11 0-22.6-12.8-27.8-21.5-10.9-18-18.3-37.9-22.2-59.5-16.8-92.8 1.5-194.8 62.5-267.6.2-.2.3-.6.2-.9-10-72.4-19-144.6-24.3-217.5-1.4-19.1-2.7-38.2-4-57.3 0-.3-.3-.5-.5-.5h-.1c-48.2 16.1-91.4 37-131.6 68.7-.5.4-.8 1.1-.8 1.8 5.5 74.2 8.5 149.2 5.2 223.6-1.9 42.9-8.7 92.7-37.9 126.5-5.5 6.5-14.1 13.5-23 15.6-2.4.6-6.2.8-11.3.9-10.4 0-23.9 1.2-33-1.4-11.1-3.1-20.2-11.3-26.9-20.2-19.6-26.2-26.1-59.9-27-92.3-1.1-36.8 4.8-70.8 15.6-105.5 19-60.4 56-112.1 105-151.9.2-.2.4-.5.4-.8-5.9-90.5-11-159.6-10.4-239.9.1-7.7.4-14.6.9-20.9 0-.2-.1-.3-.3-.3-.2.4-.3.4-.3.5zm78.9-225.9c-7.2 7.9-11.9 18.4-15.7 28.2-20.3 52.4-30.8 108-34.9 164 0 .3.1.3.3.1 4.6-3.8 9.1-7.6 13.5-11.4 41.6-36.3 64.6-86.1 55.8-142-2.1-13.2-7.8-29.1-17.6-39-.4-.3-1-.3-1.4.1zM105.2 268.1c0-.4-.2-.5-.5-.2-20.6 16-42.5 37.8-37.1 67.2 1.6 8.8 5.4 18 13 23.4.3.2.7.2.9 0 24.2-18.8 25.7-63.4 23.7-90.4zM335 858.7c6.2 11.6 15 23.2 26 30.6 1 .6 1.9.6 2.8-.2 8-6.7 14.4-14.8 19.4-24.3 21.3-40.9 29.3-91.8 30.9-137.5 1.8-50.7-2.1-107-5.4-160.4-.1-2.1-.1-4.2.1-6.3 0-.5-.1-.6-.5-.2-37.6 38.4-65 83.7-82.7 134.3-18.1 52.6-17.2 113.7 9.4 164zM873 869c1.6 1.5 3.1 2.7 4.4 3.5.3.2.6.2.9 0 3.3-2 6.1-4.4 8.5-7.4 24.2-30.4-2.3-74.5-21.5-99.2-.3-.3-.7-.4-1.1-.1l-.1.1c-32.4 29.7-19.8 76.6 8.9 103.1zm-266.4-88.6c0-.3-.2-.3-.3-.1-44.7 71.1-54.1 159.7-33.6 240.4 5 19.6 12.5 42 26.7 57.4.2.2.5.2.7 0 9.4-9.8 14.8-25.1 17.9-38.7 6.1-26.6 8-53.9 7.3-81.5-1.7-59.4-10.7-118.5-18.7-177.5z"/></svg>