<svg width="21" height="21" fill="none" xmlns="http://www.w3.org/2000/svg"><path d="M14 15.75a1.75 1.75 0 1 1 0 3.5 1.75 1.75 0 0 1 0-3.5zm0 .875a.875.875 0 1 0 0 1.75.875.875 0 0 0 0-1.75zm-7.875-.875a1.75 1.75 0 1 1 0 3.5 1.75 1.75 0 0 1 0-3.5zm0 .875a.875.875 0 1 0 0 1.75.875.875 0 0 0 0-1.75zM15.75 5.25H3.736l2.232 5.25h7.157c.289 0 .543-.14.7-.35l2.625-3.5a.875.875 0 0 0-.7-1.4zm-2.625 6.125H6.011l-.673 1.365-.088.385a.875.875 0 0 0 .875.875h9.625v.875H6.125a1.75 1.75 0 0 1-1.531-2.599l.63-1.286L2.047 3.5H.875v-.875h1.75l.744 1.75H15.75a1.75 1.75 0 0 1 1.356 2.853L14.56 10.63c-.315.447-.84.744-1.435.744z" fill="#000"/></svg>