<svg xmlns="http://www.w3.org/2000/svg" xmlns:xlink="http://www.w3.org/1999/xlink" viewBox="0 0 500 500"><style>.st0{fill:#f5f5f5}.st1{fill:#e0e0e0}.st2{fill:#ebebeb}.st3{fill:#fafafa}.st6{fill:#455a64}.st7{fill:#ffbe9d}.st8{fill:#263238}.st9{fill:#eb996e}.st11{fill:red}</style><g id="Background_Complete"><path class="st0" d="M380.6 408.9c-15.6-10.9-19.1-31-18.5-49.2.1-3-.2-6.2 1.2-8.9s4.8-4.5 7.5-3.2c2.2 1.1 3.2 3.7 4.5 5.8 1.7 2.9 4.2 5.3 7.1 6.8 1.9 1 4.3 1.6 6.2.6 2.6-1.4 2.9-5 2.9-8.1 0-5.6-.1-11.2-.1-16.8 0-3 0-6.1.9-8.9.9-2.9 3-5.5 5.9-6.3 2.9-.8 6.4.8 7 3.8.3 1.2 0 2.5.1 3.7.1 1.2.7 2.6 1.9 3 1.2.4 2.4-.5 3.3-1.4 3.1-3 5.2-7 7.2-10.8 2-3.9 3.9-7.9 6.7-11.2 2.8-3.3 6.7-5.9 11-6.2 4.3-.2 8.9 2.4 10 6.6 1.1 4.2-1.4 8.5-4.1 12-4 5.1-8.7 9.6-14 13.3-.9.7-2 1.4-2.3 2.5-.7 2 1.2 4 3.2 4.7 2.2.7 4.7.5 7 .8 2.3.3 4.9 1.3 5.8 3.5 1.2 3.1-1.3 6.3-3.9 8.4-5.1 4.2-10.9 7.6-17 9.8-2.2.8-4.5 1.5-6.3 3.1-1.8 1.6-2.9 4.3-1.8 6.4 1.1 2.1 3.8 2.8 6.2 2.4 2.3-.4 4.4-1.7 6.6-2.5 4.1-1.6 9.5-1.3 12.1 2.3 1.7 2.3 1.9 5.6 1 8.4-.9 2.8-2.7 5.2-4.6 7.4-6.6 7.8-15.1 14-24.7 17.4-9.6 3.4-18.5 4.3-28 .8"/><path class="st1" d="M380.3 422.3c.7-7.2 2.2-15.7 4.9-24.8 2.7-9.1 6.4-18.9 10.7-29 1.1-2.5 2.1-5 3.2-7.5 1.1-2.4 2.1-4.9 3.3-7.2 2.3-4.6 4.9-8.9 7.5-12.9 2.6-4 5.2-7.7 7.6-11.1 2.5-3.4 4.8-6.6 7.1-9.4 4.5-5.6 8.7-9.6 11.7-12.3 1.5-1.3 2.7-2.3 3.5-3 .4-.3.7-.6.9-.8.2-.2.3-.2.3-.2l-.3.3c-.2.2-.5.5-.9.8-.8.7-2 1.7-3.4 3.1-2.9 2.7-7 6.8-11.5 12.4-2.2 2.8-4.6 5.9-7 9.4-2.4 3.4-5 7.1-7.6 11.1-2.6 4-5.1 8.3-7.4 12.9-1.2 2.3-2.2 4.7-3.3 7.2-1 2.5-2.1 4.9-3.2 7.5-4.3 10.1-8 19.8-10.7 29-2.7 9.1-4.3 17.5-5 24.7"/><path class="st1" d="M402.6 353.8s-.1-.5-.3-1.3c-.2-.8-.3-2-.6-3.5-.4-3-.9-7.2-1.3-11.7-.5-4.6-1-8.7-1.4-11.7-.2-1.5-.4-2.7-.6-3.5-.1-.8-.2-1.3-.2-1.3s.2.4.4 1.3c.2.8.5 2 .8 3.5.6 3 1.1 7.1 1.6 11.7.5 4.5.9 8.6 1.2 11.8.2 1.4.3 2.6.4 3.6v1.1zm38.7-7.2s-.5.1-1.5.2-2.4.2-4.2.4c-3.5.4-8.4 1.1-13.8 2.1-5.3 1-10.1 2.1-13.6 3.1-1.7.4-3.1.8-4.1 1.1-1 .3-1.5.4-1.5.4s.5-.2 1.4-.6c.9-.3 2.3-.8 4-1.3 3.4-1 8.2-2.2 13.6-3.2s10.3-1.7 13.8-1.9c1.8-.2 3.2-.2 4.2-.2 1.1-.2 1.7-.1 1.7-.1zm-55.6 50.2s-.1-.2-.3-.5l-.7-1.4c-.6-1.2-1.3-3-2.3-5.2-1.9-4.4-4.3-10.6-6.8-17.5s-4.9-13.1-6.6-17.6c-.9-2.2-1.6-4-2.1-5.3-.2-.6-.4-1.1-.6-1.4-.1-.3-.2-.5-.2-.5s.1.2.3.5l.7 1.4c.6 1.2 1.3 3 2.3 5.2 1.9 4.4 4.3 10.6 6.8 17.5s4.9 13.1 6.6 17.6c.9 2.2 1.6 4 2.1 5.3.2.6.4 1.1.6 1.4.2.3.2.5.2.5zm51.4-16.5s-.2.1-.5.2c-.4.1-.9.3-1.5.5-1.4.4-3.2 1.1-5.5 1.8-4.6 1.5-11 3.7-18.1 6.1-7.1 2.4-13.5 4.5-18.2 5.9-2.3.7-4.2 1.3-5.6 1.6-.6.2-1.1.3-1.5.4-.3.1-.5.1-.5.1s.2-.1.5-.2c.4-.1.9-.3 1.5-.5 1.4-.4 3.2-1.1 5.5-1.8 4.6-1.5 11-3.7 18.1-6.1 7.1-2.4 13.5-4.5 18.2-5.9 2.3-.7 4.2-1.3 5.6-1.6.6-.2 1.1-.3 1.5-.4.3-.1.5-.2.5-.1zm25.3-47.8s-.2-.2-.4-.6c-.3-.4-.6-1-1-1.6-.8-1.4-2-3.3-3.4-5.7l.3.1c-2.3 1.4-5 2.9-7.9 4.6 0 .1.2-.7.1-.4v.1l.1.1.2.3.3.5c.2.4.4.7.6 1.1l1.2 2.1c.8 1.3 1.5 2.6 2.1 3.8l-.3-.1c2.4-1.3 4.3-2.4 5.8-3.2.7-.4 1.2-.7 1.7-.9.4-.1.6-.2.6-.2s-.2.1-.5.4c-.4.3-.9.6-1.6 1-1.4.8-3.4 2-5.8 3.5l-.2.1-.1-.2c-.7-1.2-1.4-2.4-2.2-3.7l-1.2-2.1c-.2-.4-.4-.7-.6-1.1l-.3-.5-.2-.3-.1-.1v-.1c-.1.3.1-.4.1-.4 2.9-1.7 5.6-3.2 8-4.6l.2-.1.1.2c1.4 2.4 2.5 4.5 3.3 5.9.3.6.6 1.2.9 1.6.1.3.2.5.2.5zM229 156.2s-.2-.2-.4-.6c-.3-.4-.6-1-1-1.6-.8-1.4-2-3.3-3.4-5.7l.3.1c-2.3 1.4-5 2.9-7.9 4.6 0 .1.2-.7.1-.4v.1l.1.1.2.3.3.5c.2.4.4.7.6 1.1l1.2 2.1c.8 1.3 1.5 2.6 2.1 3.8l-.3-.1c2.4-1.3 4.3-2.4 5.8-3.2.7-.4 1.2-.7 1.7-.9.4-.1.6-.2.6-.2s-.2.1-.5.4c-.4.3-.9.6-1.6 1-1.4.8-3.4 2-5.8 3.5l-.2.1-.1-.2c-.7-1.2-1.4-2.4-2.2-3.7l-1.2-2.1c-.2-.4-.4-.7-.6-1.1l-.3-.5-.2-.3-.1-.1v-.1c-.1.3.1-.4.1-.4 2.9-1.7 5.6-3.2 8-4.6l.2-.1.1.2c1.4 2.4 2.5 4.5 3.3 5.9.3.6.6 1.2.9 1.6.2.3.2.5.2.5z"/><path transform="matrix(1 -.00536 .00536 1 -.472 .838)" class="st1" d="M151.3 64.5h9.7v48.1h-9.7z"/><path transform="matrix(1 -.00535 .00535 1 -.416 .43)" class="st2" d="M67.5 64.7h25v26.6h-25z"/><path transform="matrix(1 -.00535 .00535 1 -.415 .563)" class="st0" d="M92.4 64.6h25v26.6h-25z"/><path class="st1" d="M67.4 72.1c16.6.1 33.3 0 50-.2.3 0 .3-.5 0-.5-16.6-.1-33.3 0-50 .3-.3-.1-.3.4 0 .4z"/><path transform="matrix(1 -.00536 .00536 1 -.544 .401)" class="st2" d="M51.8 90.9h45.5v21.7H51.8z"/><path transform="matrix(1 -.00536 .00536 1 -.542 .643)" class="st0" d="M97.1 90.6h45.5v21.7H97.1z"/><path class="st1" d="M51.8 97c30.2.3 60.6 0 90.8-.4.3 0 .3-.5 0-.5-30.2-.2-60.6-.1-90.8.5-.3 0-.3.4 0 .4zm-17 15.6h176.3v7.8H34.8z"/><path class="st1" d="M63.7 116.4h7.2v26.5h-7.2zm106.8 0h7.2v26.5h-7.2z"/><path transform="matrix(1 -.00536 .00536 1 -.424 .888)" class="st2" d="M160.8 46.6h9.7v66.2h-9.7z"/><path transform="matrix(1 -.00536 .00536 1 -.457 .956)" class="st0" d="M170.5 58.9h15v53.6h-15z"/><path class="st1" d="M185.3 69.2c0 .1-3.4.3-7.5.3-4.2 0-7.5-.1-7.5-.3 0-.1 3.4-.3 7.5-.3 4.1.1 7.5.2 7.5.3zm0-2.2c0 .1-3.4.3-7.5.3-4.2 0-7.5-.1-7.5-.3 0-.1 3.4-.3 7.5-.3s7.5.1 7.5.3zm0 37.4c0 .1-3.4.3-7.5.3-4.2 0-7.5-.1-7.5-.3s3.4-.3 7.5-.3c4.1.1 7.5.2 7.5.3zm0-2.2c0 .1-3.4.3-7.5.3-4.2 0-7.5-.1-7.5-.3 0-.1 3.4-.3 7.5-.3s7.5.1 7.5.3zm-7.3-4.9c-.1 0-.3-5.4-.3-12.1 0-6.7.1-12.1.3-12.1s.3 5.4.3 12.1c0 6.7-.1 12.1-.3 12.1z"/><path class="st2" d="M185.5 72h16.4v40.5h-16.4z"/><path class="st3" d="M194.1 102c-2.2 0-3.7-1.5-3.7-3.6 0-1.1.4-2.1 1.3-2.7l.4.5c-.7.5-1.1 1.3-1.1 2.2 0 1.7 1.2 2.9 3 2.9s3-1.2 3-2.9c0-.9-.3-1.7-1.1-2.2l.4-.5c.9.6 1.3 1.6 1.3 2.7.2 2.1-1.4 3.6-3.5 3.6zm2.7-7.3l-.6-.3c.5-.6.9-1.5.9-2.6 0-1.5-.5-2.1-1.4-2.1-2.1 0-.6 4.8-3.4 4.8-1.1 0-2-.9-2-2.7 0-.9.3-1.9.7-2.5l.6.3c-.4.6-.6 1.4-.6 2.2 0 1.4.6 2 1.4 2 2.2 0 .6-4.8 3.4-4.8 1.2 0 2 1 2 2.8 0 1.2-.4 2.3-1 2.9zm0-6.6l-.6-.3c.5-.6.9-1.5.9-2.6 0-1.5-.5-2.1-1.4-2.1-2.1 0-.6 4.8-3.4 4.8-1.1 0-2-.9-2-2.7 0-.9.3-1.9.7-2.5l.6.3c-.4.6-.6 1.4-.6 2.2 0 1.4.6 2 1.4 2 2.2 0 .6-4.8 3.4-4.8 1.2 0 2 1 2 2.8 0 1.2-.4 2.3-1 2.9z"/><circle class="st1" cx="165.3" cy="57.9" r="2.8"/><path class="st1" d="M164.5 65.5h1.7v39.4h-1.7zm219 231.7c-.1-.1 3.1-3.5 7.3-7.6 4.1-4.1 7.5-7.4 7.6-7.3.1.1-3.1 3.5-7.3 7.6-4.1 4.2-7.5 7.4-7.6 7.3z"/><path class="st1" d="M398.4 297.2c-.1.1-3.5-3.1-7.6-7.3-4.1-4.1-7.4-7.5-7.3-7.6.1-.1 3.5 3.1 7.6 7.3 4.1 4.1 7.4 7.5 7.3 7.6zm-151.1-80.7c-.1-.1 3.1-3.5 7.3-7.6 4.1-4.1 7.5-7.4 7.6-7.3.1.1-3.1 3.5-7.3 7.6-4.1 4.1-7.5 7.4-7.6 7.3z"/><path class="st1" d="M262.2 216.5c-.1.1-3.5-3.1-7.6-7.3-4.1-4.1-7.4-7.5-7.3-7.6.1-.1 3.5 3.1 7.6 7.3 4.1 4 7.4 7.5 7.3 7.6zM226.9 86.1c-.1 0-.6-4-1-9s-.7-9-.5-9c.1 0 .6 4 1 9s.6 9 .5 9z"/><path class="st1" d="M235.1 76.3c0 .1-4 .6-9 1s-9 .7-9 .5c0-.1 4-.6 9-1 4.9-.4 9-.6 9-.5zM143.4 185s-.1-.1-.2-.3c-.1-.2-.3-.5-.5-.8-.4-.7-1-1.7-1.8-3-1.5-2.6-3.7-6.3-6.3-10.6l.3.1c-4.3 2.5-9.4 5.4-14.8 8.6 0 .1.2-.7.1-.4v.1l.1.1.1.3.3.5.6 1c.4.7.8 1.3 1.1 2 .8 1.3 1.5 2.6 2.2 3.8 1.4 2.5 2.8 4.8 4 7l-.3-.1c4.4-2.5 8.1-4.6 10.7-6.1 1.3-.7 2.3-1.3 3.1-1.7.3-.2.6-.3.8-.4.4 0 .5-.1.5-.1s-.3.2-1 .6c-.7.4-1.7 1-3 1.8-2.6 1.6-6.3 3.7-10.8 6.3l-.2.1-.1-.2c-1.3-2.2-2.6-4.5-4.1-7-.7-1.2-1.5-2.5-2.2-3.8-.4-.7-.8-1.3-1.1-2l-.6-1-.3-.5-.1-.3-.1-.1v-.1c-.1.3.1-.4.1-.4 5.4-3.1 10.5-6 14.8-8.5l.2-.1.1.2c2.5 4.5 4.6 8.2 6.1 10.9.7 1.3 1.3 2.3 1.7 3 .4.8.6 1.1.6 1.1zm327.5 96.3s-.1-.3-.5-.9c-.3-.5-.9-1.2-2-1.7-1-.4-2.4-.4-3.6.4-1.2.8-1.9 2.5-1.5 4.1.4 1.6 1.9 2.7 3.3 2.8 1.4.2 2.7-.5 3.4-1.4.7-.9.9-1.8.9-2.4v-.9s.2.3.2 1c0 .6-.1 1.7-.8 2.6-.7 1-2.1 1.8-3.7 1.6-1.6-.1-3.3-1.3-3.8-3.2-.5-1.8.4-3.7 1.7-4.6 1.3-.9 3-.9 4-.4 1.1.5 1.7 1.3 2 1.9.4.8.4 1.1.4 1.1zM284 43.3s-.1-.3-.5-.9c-.3-.5-.9-1.2-2-1.7-1-.4-2.4-.4-3.6.4-1.2.8-1.9 2.5-1.5 4.1.4 1.6 1.9 2.7 3.3 2.8 1.4.2 2.7-.5 3.4-1.4.7-.9.9-1.8.9-2.4 0-.5-.1-.9 0-.9 0 0 .2.3.2 1 0 .6-.1 1.7-.8 2.6-.7 1-2.1 1.8-3.7 1.6-1.6-.1-3.3-1.3-3.8-3.2-.5-1.8.4-3.7 1.7-4.6 1.3-.9 3-.9 4-.4 1.1.5 1.7 1.3 2 1.9.4.7.4 1.1.4 1.1zM98 157.8s-.1-.3-.5-.9c-.3-.5-.9-1.2-2-1.7-1-.4-2.4-.4-3.6.4-1.2.8-1.9 2.5-1.5 4.1.4 1.6 1.9 2.7 3.3 2.8 1.4.2 2.7-.5 3.4-1.4.7-.9.9-1.8.9-2.4.1-.6 0-.9 0-.9s.2.3.2 1c0 .6-.1 1.7-.8 2.6-.7 1-2.1 1.8-3.7 1.6-1.6-.1-3.3-1.3-3.8-3.2-.5-1.8.4-3.7 1.7-4.6 1.3-.9 3-.9 4-.4 1.1.5 1.7 1.3 2 1.9.4.7.4 1.1.4 1.1zm355.7-16c-.1 0-.2-.7-.9-1.9s-2-2.7-4.2-3.7c-1.1-.4-2.4-.7-3.8-.6-1.4.1-2.9.6-4.1 1.5-.6.4-1.2 1-1.7 1.6-.5.6-.9 1.4-1.2 2.2-.6 1.6-.8 3.4-.3 5.2.5 1.7 1.5 3.3 2.8 4.3.7.5 1.4 1 2.1 1.3.8.3 1.5.5 2.3.6 1.6.2 3.1-.2 4.3-.7 1.3-.6 2.3-1.5 3-2.4 1.5-1.9 1.9-3.9 1.9-5.2 0-1.5-.2-2.2-.2-2.2s.1.2.2.5.2.9.2 1.6c.1 1.4-.3 3.5-1.8 5.5-.8 1-1.8 1.9-3.1 2.5-1.3.6-2.9 1-4.6.8-.8-.1-1.7-.3-2.5-.6s-1.6-.8-2.3-1.3c-1.4-1.1-2.5-2.8-3-4.6-.5-1.9-.3-3.8.4-5.5.3-.8.8-1.6 1.3-2.3.5-.7 1.2-1.3 1.9-1.7 1.4-1 2.9-1.4 4.4-1.5 1.5-.1 2.8.2 4 .7 2.3 1 3.6 2.7 4.2 3.9.3.6.5 1.1.6 1.5.1.3.1.5.1.5zm-26.9 126.6s-.2-.3-.5-.9c-.4-.7-.9-1.6-1.5-2.7-1.3-2.4-3.1-5.8-5.2-9.8l-.2-.4h.4c2.3.1 4.8.3 7.4.5 2.7.2 5.3.4 7.7.5h.4l-.2.4c-2.4 3.7-4.5 6.9-6 9.1-.7 1-1.3 1.9-1.7 2.5-.4.5-.6.8-.6.8s.2-.4.6-1c.4-.7 1-1.6 1.6-2.7 1.4-2.3 3.4-5.4 5.7-9.1l.2.4c-2.4-.1-5-.3-7.7-.5-2.6-.2-5.1-.3-7.4-.5l.2-.4c2 3.9 3.6 7.3 4.8 9.7.6 1.2 1 2.1 1.4 2.9.4.8.6 1.1.6 1.2zM357 79.5s-.2-.3-.5-.9c-.4-.7-.9-1.6-1.5-2.7-1.3-2.4-3.1-5.8-5.2-9.8l-.2-.4h.4c2.3.1 4.8.3 7.4.5 2.7.2 5.3.4 7.7.5h.4l-.2.4c-2.4 3.7-4.5 6.9-6 9.1-.7 1-1.3 1.9-1.7 2.5-.3.6-.6.9-.6.8 0 0 .2-.4.6-1 .4-.7 1-1.6 1.6-2.7 1.4-2.3 3.4-5.4 5.7-9.1l.2.4c-2.4-.1-5-.3-7.7-.5-2.6-.2-5.1-.3-7.4-.5l.2-.4c2 3.9 3.6 7.3 4.8 9.7.6 1.2 1 2.1 1.4 2.9.5.8.6 1.2.6 1.2zM236.1 302.6l.6-.9c.4-.7 1-1.5 1.7-2.6 1.5-2.2 3.6-5.5 6.2-9.2l.2-.3.2.3c1.5 2.2 3.1 4.6 4.8 7.1 1.3 1.9 2.6 3.8 3.7 5.5l.3.4h-.5c-5 0-9.4-.1-12.4-.1-1.4 0-2.6 0-3.5-.1-.9-.1-1.3-.1-1.3-.1h1.4c.9 0 2.1 0 3.6-.1 3.1-.1 7.3-.1 12.2-.1l-.2.4c-1.2-1.7-2.4-3.6-3.7-5.5-1.7-2.5-3.3-4.9-4.7-7.1h.4c-2.5 3.6-4.7 6.7-6.3 8.9-.8 1.1-1.4 1.9-1.9 2.6-.5.5-.8.9-.8.9z"/></g><g id="Character"><path class="st6" d="M392.3 432.6H267.1V360c0-34.6 28-62.6 62.6-62.6s62.6 28 62.6 62.6v72.6z"/><path class="st7" d="M171.2 397.4l-6.3 4.5-7 16.8s1.9 1.3 3.4-.1c1.5-1.4 7.1-11.1 7.1-11.1v5.8c0 2.3 1.8 4.3 4.1 4.6l10.4 3.2 12.7-3.6 1.1-15.2-25.5-4.9z"/><path class="st8" d="M284.4 285.6c-3.1-.9-4.6-4.5-4.9-7.7-.3-3.2.3-6.6-.6-9.7-.6-2.2-1.9-4.3-2.1-6.6-.2-2.5 1-4.9 1.1-7.4.1-3.5-2-6.7-2-10.2-.1-4.8.8-12.7 5.6-12.5 4.8.3 12.5 8.7 11.9 13.4"/><path class="st7" d="M329.7 245.9l-.1 4.8-1 71.8c-.1 8.3-7.4 14.9-16.3 14.7-9-.2-16.3-7.2-16.4-15.6 0-8.8-.2-18.1-.2-18.1s-11.4-1.9-13.7-16.7c-1.2-7.4-.8-19.5-.2-29.4.6-8.9 8.4-15.6 17.3-14.6l30.6 3.1z"/><path class="st8" d="M284.9 265.7c0 1 .8 1.9 1.8 1.9 1 .1 1.9-.7 2-1.7 0-1-.8-1.9-1.8-1.9-1-.1-1.9.7-2 1.7zm-.4-2.1c.2.2 1.7-.8 3.7-.8s3.6 1 3.8.8c.1-.1-.1-.6-.8-1-.6-.5-1.7-.9-3-.9s-2.4.5-3 1c-.6.3-.8.8-.7.9zm20.9 2.1c0 1 .8 1.9 1.8 1.9 1 .1 1.9-.7 2-1.7 0-1-.8-1.9-1.8-1.9-1-.1-1.9.7-2 1.7z"/><path class="st8" d="M304.7 264c.2.2 1.7-.8 3.7-.8s3.6 1 3.8.8c.1-.1-.1-.6-.8-1-.6-.5-1.7-.9-3-.9s-2.4.5-3 1c-.6.3-.9.8-.7.9zm-7.5 15.2c0-.1-1.3-.3-3.3-.6-.5-.1-1-.2-1.1-.5-.1-.4.1-.9.3-1.6.5-1.3 1-2.6 1.5-4 2.1-5.7 3.7-10.3 3.5-10.4-.2-.1-2.2 4.4-4.3 10.1-.5 1.4-1 2.7-1.5 4-.2.6-.5 1.3-.3 2.1.1.4.5.7.9.8.3.1.6.1.9.1 2.1.1 3.4.1 3.4 0z"/><path class="st9" d="M295.8 303.4s10 .6 19.9-5.3c0 0-4.8 10.2-19.7 8.8l-.2-3.5zm2.3-19.3c.7-1 2-1.5 3.3-1.4.9.1 1.8.5 2.3 1.2.5.7.7 1.8.2 2.4-.6.8-1.7 1-2.7.7-1-.3-1.8-.9-2.6-1.6l-.6-.6c-.1-.1-.2-.4.1-.7"/><path class="st8" d="M303.3 280.6c-.3 0-.3 2.2-2.2 3.8-1.9 1.6-4.3 1.3-4.3 1.6 0 .1.5.4 1.5.5 1 0 2.4-.3 3.6-1.2 1.2-1 1.7-2.3 1.7-3.2.1-1-.2-1.5-.3-1.5zm.8-24.7c.2.6 2.2.3 4.7.6 2.4.2 4.3.9 4.7.4.1-.2-.2-.8-1-1.3s-2-1.1-3.5-1.2c-1.4-.2-2.8.1-3.6.4-.9.4-1.4.9-1.3 1.1zm-18.8 1.8c.4.5 1.8 0 3.5 0 1.7-.1 3.1.3 3.5-.2.1-.2-.1-.7-.7-1.1-.6-.4-1.7-.8-2.8-.8-1.2 0-2.2.5-2.8.9-.7.4-.9.9-.7 1.2zm49.9-16.4c3.1-8.4 15.9-21 25.8-15.4 10.8 6.2 7 10.4 10.9 13.3.9.7 5.3-.8 5.9.2 1.6 2.6.2 5.9-1.1 8.7.3 0 .6-.1 1-.3 1.2-.5 2.5.5 2.5 1.8-.2 3.3-1.4 6.8-3.3 9.2.7.2 1.4.2 2.1.1 1-.2 1.7.8 1.4 1.7-1.1 3.2-4.1 5.7-7.5 6.3-4.1.9-8.5-.6-11.9-3.2-3.4-2.5-5.9-6-8.2-9.6-1.3-2.1-2.6-4.2-4.6-5.7s-4.8-2-6.9-.6"/><path d="M341.4 247.5v-.4c0-.2-.1-.6-.3-1-.3-.8-.9-1.9-1.6-3-.7-1.1-1.5-2.1-2.1-2.7l-1-1c0-.1.6.2 1.3.8.7.6 1.5 1.6 2.3 2.7.7 1.2 1.3 2.3 1.5 3.2.1.4.2.8.1 1.1-.1.2-.2.3-.2.3z" fill="#e8505b"/><path class="st8" d="M366.5 270.5s-.1.1-.4.3c-.2.2-.6.4-1.1.6-1 .4-2.7.8-4.7.6-2-.2-4.4-1.1-6.2-3.2-.9-1-1.5-2.3-2-3.7-.4-1.4-.6-2.9-.7-4.4-.2-3-.1-5.9-.6-8.5-.3-1.3-.7-2.4-1.2-3.4-.6-1-1.3-1.8-2.1-2.4-1.6-1.2-3.2-1.5-4.3-1.4-1.1.1-1.6.4-1.7.4 0 0 .1-.1.4-.2.3-.1.7-.3 1.3-.3 1.1-.1 2.9.1 4.5 1.3.8.6 1.6 1.4 2.2 2.4.6 1 1 2.2 1.3 3.5.6 2.6.5 5.5.7 8.5.1 1.5.3 3 .7 4.3.4 1.3 1 2.6 1.8 3.5 1.7 2 4 2.9 5.9 3.1 1.9.3 3.5-.1 4.6-.4 1-.3 1.5-.7 1.6-.6zm9.9-40.4l.3.6c.2.4.3 1 .4 1.8 0 .8 0 1.8-.5 2.8-.4 1-1.2 2.2-2.4 2.9-1.2.8-2.9 1.1-4.6.7-1.6-.3-3.4-1.4-4.3-3.1-1-1.7-1.3-3.6-1.7-5.6-.4-1.9-.8-4.1-2.1-5.6-.7-.8-1.5-1.3-2.5-1.6-1-.3-2-.2-2.9-.1-1.9.4-3.7 1.3-5.2 2.2-3.1 1.9-5.7 4-7.8 5.9-2 1.9-3.5 3.6-4.5 4.8-.5.6-.8 1-1.1 1.4-.3.3-.4.5-.4.5s.1-.2.3-.5c.2-.3.6-.8 1-1.5.9-1.2 2.4-3 4.4-5 2-2 4.6-4.1 7.8-6.1 1.6-1 3.3-1.9 5.4-2.3 1-.2 2.1-.2 3.2.1 1.1.3 2 .9 2.8 1.7 1.4 1.7 1.8 3.9 2.2 5.9.4 2 .7 3.9 1.6 5.5.8 1.6 2.4 2.6 3.9 2.9 1.6.3 3.1.1 4.3-.6 1.2-.7 1.9-1.7 2.4-2.7.4-1 .6-2 .5-2.7 0-1.5-.5-2.2-.5-2.3z"/><path class="st8" d="M338.9 226.6s.6.5 1.1 1.7c.5 1.1.9 2.9.6 4.8-.3 1.9-1.3 3.4-2.1 4.3-.9.9-1.6 1.2-1.6 1.2-.1-.1.6-.5 1.3-1.4.7-.9 1.6-2.4 1.9-4.1.3-1.8 0-3.4-.4-4.5-.5-1.3-.9-2-.8-2zm1.5 18.5c-2.2-5.7-7.5-10.2-13.5-11.4-3.7-.7-7.5-.2-10.9 1.5-1.3-.7-2.3-1.8-3.4-2.9-3.6-3.5-7.9-6.2-12.7-7.5-4.8-1.3-10.1-1-14.6 1.1-4.5 2.2-8 6.4-9 11.3s.9 10.3 4.8 13.3c4 3 10 3.1 13.9-.1-.3 2.2 1.7 4.2 3.8 4.6 2.2.4 4.4-.5 6.2-1.8 1.8-1.3 3.2-3 4.8-4.6.6-.6 1.2-1.1 1.8-1.7 2.3 5 7 8.9 12.5 10-1.7 1.9-1.6 4.8-.9 7.2.7 2.4 1.9 4.8 1.8 7.4 0 2.1-.9 4.1-1.4 6.2-.6 2.9-.1 6 1.2 8.7.5 1 1.1 2.5 1.7 3.5 1 1.8 1 1.8 2.5 2.2 3.1.9 8.3-10.2 9.7-14.6 1.1-3.7 1.6-10.3 2.9-13.9 2.4-6.5 1-12.8-1.2-18.5z"/><path class="st6" d="M342.4 259s-.1.1-.2.3c-.2.2-.4.5-.8.7-.4.3-1 .5-1.7.6-.7.1-1.5 0-2.3-.4-.4-.2-.8-.5-1.1-.9-.3-.4-.6-.8-.8-1.3-.4-.9-.7-2-1.4-2.8-.6-.9-1.7-1.4-2.9-1.5-1.2-.2-2.4-.1-3.8-.2-1.3 0-2.6-.2-3.8-.5-1.2-.3-2.3-.8-3.3-1.3-2-1.1-3.6-2.4-4.8-3.7-1.1-1.3-1.9-2.5-2.3-3.4-.2-.4-.3-.8-.4-1-.1-.2-.1-.4-.1-.4.1-.1.8 2 3.1 4.5 1.1 1.2 2.7 2.5 4.7 3.6 1 .5 2.1.9 3.3 1.2 1.2.3 2.4.5 3.7.5 1.3 0 2.6 0 3.8.2 1.2.2 2.5.8 3.2 1.8.7 1 1 2.1 1.4 2.9.2.4.4.9.7 1.2.3.3.6.6 1 .8 1.5.8 3 .4 3.8 0 .7-.5 1-1 1-.9zm-2.3 6s-.2.3-.6.6c-.4.3-1.2.8-2.1 1.1-1 .3-2.2.4-3.5.1-1.3-.3-2.7-1-3.7-2.2-1-1.2-1.6-2.5-2.3-3.7-.6-1.2-1.3-2.1-2-2.7-.7-.6-1.4-1-1.9-1.1-.5-.1-.8-.1-.8-.2 0 0 .3-.1.9 0 .6.1 1.4.4 2.1 1 .8.6 1.5 1.6 2.2 2.8.6 1.1 1.2 2.4 2.2 3.5 1 1.1 2.3 1.8 3.5 2.1 1.2.3 2.4.2 3.3 0 1.7-.5 2.7-1.4 2.7-1.3zm39.4-17.4s0 .2-.1.6c-.1.4-.4.9-.9 1.4-.5.5-1.3 1.1-2.3 1.4-1 .3-2.2.5-3.5.1-2.6-.6-5.1-3-6.6-6.1-1.6-3.1-2.5-6.8-4.8-10-1.1-1.6-2.7-2.7-4.4-3.4-1.7-.7-3.5-.9-5.2-.8-3.4.2-6.2 1.9-8 3.6-1.9 1.7-3.1 3.5-3.8 4.7-.7 1.3-1 2-1.1 2 0 0 0-.2.2-.6.1-.4.4-.9.7-1.5.7-1.3 1.8-3.1 3.7-4.9 1.9-1.8 4.7-3.5 8.3-3.8 1.7-.1 3.6.1 5.4.8 1.8.7 3.4 1.9 4.6 3.6 2.4 3.3 3.2 7.1 4.8 10.1 1.5 3 3.8 5.3 6.3 6 1.2.3 2.4.2 3.4-.1 1-.3 1.7-.8 2.2-1.3 1-1 1.1-1.9 1.1-1.8z"/><path class="st6" d="M379.1 254.6s-.1.2-.4.4c-.3.3-.7.6-1.2 1.1-.6.4-1.3.9-2.2 1.3-.9.4-2.1.6-3.4.5-2.5-.3-5.4-1.9-7.4-4.6-1-1.3-1.7-3-2.3-4.7-.6-1.7-1.1-3.5-1.7-5.3-.6-1.8-1.5-3.4-2.6-4.8s-2.6-2.3-4.2-2.7c-3.1-.9-6.2 0-8.3 1.1-2.2 1.1-3.7 2.5-4.8 3.4-.5.4-.9.8-1.2 1.1l-.4.4s.1-.2.4-.4c.2-.3.6-.7 1.1-1.2 1-1 2.5-2.4 4.7-3.6 2.2-1.2 5.3-2.1 8.6-1.2 1.6.4 3.2 1.4 4.4 2.8 1.2 1.4 2 3.1 2.7 4.9.7 1.8 1.1 3.6 1.7 5.3.6 1.7 1.3 3.3 2.2 4.6 1.9 2.6 4.6 4.2 7 4.5 1.2.1 2.3-.1 3.2-.4.9-.3 1.7-.8 2.2-1.1 1.4-.9 1.9-1.4 1.9-1.4z"/><path class="st11" d="M271.2 403.4l1.7 4.2-3.3 38.5h84.9l-3.8-11.5 10.6.5c16.3.8 29.6-13.7 26.4-29.7-.1-.5-.2-1-.3-1.4-5.3-20.6-12.4-48.3-14.9-56.4-4.1-13.5-13.3-19.9-13.3-19.9h-.2c-12.7-10.4-30-11.3-30-11.3l-6.4 4.3c-6.5 4.3-14.6 4.9-21.5 1.8-2.5-1.2-4.5-3.4-5.3-6-7.7.9-15.2 2.7-21.7 5.6-8 3.6-14 10.5-16.8 18.8l-22.2 65-37.8-5.1-8.1 22.1 38.3 9.1c14.2 4.2 29.3-2.1 36.4-15l7.3-13.6m70.7 5.2s3.6-13.9 5.8-21.4l5.4 21.1-11.2.3z"/><path class="st8" d="M370.8 435.4h-6.7c-4.4 0-10.7 0-18.7.1-16 0-38.6.1-65.1.1h-.3v-.3c.3-7.9.7-16.3 1.1-24.9v-.2h.2c7.8-.2 15.9-.5 24.2-.8 16.8-.5 32.9-1 47.6-1.5l-.2.3c-1.8-6.5-3.2-12.8-4.6-18.8-1.4-6-2.7-11.8-3.9-17.2-.6-2.7-1.2-5.4-1.7-7.9-.6-2.5-1.2-5-1.4-7.5-.2-2.4-.2-4.8 0-7s.6-4.4 1.2-6.3c1.2-3.9 3.2-7.1 5.7-9.2 2.4-2.1 5.1-3.1 7.3-3.4 2.2-.3 3.9 0 5 .3.6.2 1 .3 1.2.4.3.1.4.2.4.2s-.5-.3-1.7-.6c-1.1-.3-2.8-.6-5-.2-2.2.4-4.8 1.3-7.2 3.4-2.4 2.1-4.4 5.3-5.5 9.1-.6 1.9-.9 4.1-1.1 6.3-.2 2.2-.2 4.6 0 7 .2 2.4.8 4.9 1.4 7.4.6 2.6 1.2 5.2 1.8 7.9 1.2 5.4 2.5 11.2 3.9 17.2s2.9 12.3 4.7 18.8l.1.3h-.3c-14.7.5-30.8 1-47.6 1.5-8.3.3-16.4.5-24.2.8l.2-.2c-.4 8.6-.7 16.9-1.1 24.9l-.2-.3c26.5 0 49.1.1 65.1.1 8 0 14.3.1 18.7.1h6.3c.2.1.4.1.4.1zm-94.9-88.5v.6c0 .4.1 1 0 1.8-.1 1.6-.4 3.8-1.2 6.5-.7 2.7-1.9 5.8-3.3 9.2-1.3 3.4-2.9 7.1-3.7 11.3-.8 4.1-.6 8.2-.1 11.8.6 3.6 1.5 6.8 2.3 9.4.8 2.6 1.6 4.7 2.1 6.2.2.7.4 1.2.6 1.7.1.4.2.6.2.6l-.3-.6c-.2-.4-.4-1-.7-1.7-.6-1.4-1.4-3.5-2.3-6.2-.9-2.6-1.8-5.8-2.4-9.4-.6-3.6-.8-7.7 0-11.9s2.4-8 3.7-11.3c1.4-3.4 2.6-6.4 3.4-9.1.8-2.6 1.2-4.8 1.3-6.4.4-1.7.4-2.5.4-2.5z"/><path class="st8" d="M353.1 408.3c0-.1.7-.2 1.8-.2s2.7.3 4.2 1c1.6.7 2.8 1.8 3.3 2.7.6 1 .7 1.7.7 1.7-.1 0-.3-.6-1-1.5-.6-.8-1.8-1.8-3.3-2.5-1.5-.7-3-1-4-1.1-1-.1-1.7 0-1.7-.1zm-7.5-88.2s.6.2 1.6.6c.5.2 1.1.5 1.8.8.7.3 1.5.7 2.4 1.2.9.4 1.8 1 2.8 1.5 1 .6 2 1.2 3.1 1.9 2.1 1.5 4.4 3.2 6.6 5.3 4.3 4.2 7 9.1 8.3 12.8.3.9.6 1.8.8 2.5.2.8.4 1.4.4 2 .2 1.1.2 1.7.2 1.7s-.2-.6-.4-1.6c-.1-.5-.3-1.2-.5-1.9-.2-.8-.5-1.6-.8-2.5-1.3-3.7-4.1-8.4-8.3-12.6-2.1-2.1-4.4-3.8-6.5-5.3-1.1-.7-2.1-1.4-3.1-2-1-.6-1.9-1.1-2.8-1.6-.9-.4-1.6-.9-2.3-1.2-.7-.3-1.3-.6-1.8-.9-1-.4-1.5-.7-1.5-.7z"/><path d="M342.3 362s-8.4 37.3-8.3 40.9c.1 3.6.9 5.7.9 5.7l7 .1.1-.7 5.9-21.1-5.6-24.9z" opacity=".3"/><path class="st7" d="M268.8 410l-5.5-2.2s-6.4-10.8-7.7-10.3c-1.3.5-1.5 3.8 1.1 8.8l-7.2-1.6s-15 8-14.3 8.9c.7.9 2.1 3.1 5.4 1.2 3.3-1.9 7.6-4.2 7.6-4.2l8.4 1.9-10.6 2-9.6 9.7s3.4 2.3 6.2-.5l26.5 4.2h11.2l.6-14.8-12.1-3.1z"/><path class="st9" d="M242.5 423.7c.1.1.6-.7 1.4-1.8.4-.5 1.1-1.1 1.8-1.6s1.7-.7 2.8-.9c4.3-.8 7.8-1.6 7.8-1.8 0-.2-3.6.2-7.9 1-1.1.2-2.2.5-3.1 1.1-.8.6-1.4 1.2-1.9 1.9-.7 1.2-1 2-.9 2.1zm4.2.8c.1 0 .2-.6.9-.7.7-.2 1.9-.4 3.2-.6 2.5-.4 4.6-.5 4.6-.7 0-.2-2.1-.5-4.7-.1-1.3.2-2.4.5-3.3.9-.4.2-.7.6-.7.9-.2.2-.1.3 0 .3zm21.4-14.8c0 .1-1-.3-2.6-.7-1.6-.5-3.9-1.1-6.4-1.8-2.4-.6-4.6-1.2-6.4-1.6-1.6-.4-2.6-.7-2.6-.8 0-.1 1.1.1 2.7.5 1.7.3 4 .8 6.5 1.5 2.5.6 4.8 1.3 6.4 1.9 1.4.5 2.4.9 2.4 1z"/></g><g id="Screens"><path class="st8" d="M360.3 130.7s0-.4-.1-1.1c0-.7 0-1.7-.1-3 0-2.6-.1-6.2-.1-10.4l.2.2h-14.5l.3-.3v14.3l-.2-.2c4.3 0 7.8.1 10.4.1 1.2 0 2.2 0 3 .1.7.3 1.1.3 1.1.3s-.3 0-1 .1c-.7 0-1.7 0-2.9.1-2.6 0-6.2.1-10.6.1h-.2v-14.5l.3-.3h14.7v.2c0 4.3-.1 7.9-.1 10.6 0 1.2 0 2.2-.1 2.9-.1.5-.1.9-.1.8z"/><path class="st8" d="M360.3 116.4c.1.1-3 3.4-7 7.4s-7.3 7.1-7.4 7c-.1-.1 3-3.4 7-7.4 4-3.9 7.3-7.1 7.4-7z"/><path class="st8" d="M360.1 130.7c-.1.1-3.3-3-7.2-6.9-3.9-3.9-7-7.2-6.9-7.3.1-.1 3.3 3 7.2 6.9 3.9 3.9 7 7.2 6.9 7.3zm85.8 84.2s.3-.3.8-.9l2.2-2.2c1.9-1.9 4.6-4.5 7.5-7.3l.1-.1v.4c-3-2.8-5.7-5.3-7.6-7.1-.9-.9-1.6-1.6-2.3-2.2-.5-.5-.8-.8-.8-.9 0 0 .3.2.9.7.6.6 1.4 1.3 2.4 2.1 2 1.8 4.7 4.2 7.7 7l.2.2-.2.2-.1.1c-3 2.8-5.7 5.3-7.6 7.2-.9.8-1.7 1.5-2.4 2.1-.4.5-.7.7-.8.7zm-23-20.3s-.3.3-.8.9l-2.2 2.2c-1.9 1.9-4.6 4.5-7.5 7.3l-.1.1v-.4c3 2.8 5.7 5.3 7.6 7.1.9.9 1.6 1.6 2.3 2.2.5.5.8.8.8.9 0 0-.3-.2-.9-.7-.6-.6-1.4-1.3-2.4-2.1-2-1.8-4.7-4.2-7.7-7l-.2-.2.2-.2.1-.1c3-2.8 5.7-5.3 7.6-7.2.9-.8 1.7-1.5 2.4-2.1.4-.4.7-.7.8-.7zm5.9 25.1c-.1-.1 2.3-6.8 5.4-15.1 3.1-8.3 5.8-15 5.9-14.9.1.1-2.3 6.8-5.4 15.1-3.1 8.2-5.8 14.9-5.9 14.9z"/><path class="st8" d="M472.1 234.2v-4.4c0-2.9 0-7-.1-12.3 0-10.6-.1-25.8-.1-44.1l.2.2h-75l.3-.3v60.9l-.2-.2c22.3 0 41 .1 54.1.1 6.6 0 11.8 0 15.3.1h5.2c.2-.1.3 0 .3 0h-5.3c-3.6 0-8.7 0-15.3.1-13.2 0-32 .1-54.3.1h-.2V173h75.5v.2c0 18.4-.1 33.6-.1 44.3 0 5.3 0 9.4-.1 12.3v3.2c-.2.8-.2 1.2-.2 1.2z"/><path class="st8" d="M472.7 182.3c0 .1-16.9.3-37.8.3s-37.8-.1-37.8-.3 16.9-.3 37.8-.3c20.9.1 37.8.2 37.8.3zm-69.4-4.4c0 .6-.5 1-1 1-.6 0-1-.5-1-1s.5-1 1-1 1 .4 1 1zm3.6 0c0 .6-.5 1-1 1-.6 0-1-.5-1-1s.5-1 1-1c.6 0 1 .4 1 1zm3.7 0c0 .6-.5 1-1 1-.6 0-1-.5-1-1s.5-1 1-1c.6 0 1 .4 1 1z"/><path class="st11" d="M273.7 103.6l.8-.9c1 1.4 2.3 2.2 3.9 2.2 2.3 0 3.5-1.3 3.5-4.2V89.5h-6.5v-1.2h7.8v12.5c0 3.6-1.6 5.3-4.8 5.3-1.9 0-3.7-.9-4.7-2.5zm13.1.8l.6-1c1 .9 2.8 1.6 4.7 1.6 2.8 0 3.9-1 3.9-2.5 0-3.8-8.7-1-8.7-6.2 0-2 1.7-3.6 5-3.6 1.7 0 3.5.5 4.5 1.3l-.6 1c-1.1-.8-2.6-1.2-4-1.2-2.6 0-3.7 1.1-3.7 2.5 0 4 8.7 1.2 8.7 6.2 0 2.1-1.8 3.6-5.2 3.6-2 0-4.1-.7-5.2-1.7z"/><path class="st11" d="M308.8 115.4v-3.1c0-2 0-4.9-.1-8.7 0-7.4-.1-18.1-.1-30.8l.2.2h-45.9l.3-.3v42.7l-.2-.2c13.7 0 25.1.1 33.2.1 4 0 7.2 0 9.4.1h3-3c-2.2 0-5.3 0-9.3.1-8.1 0-19.6.1-33.3.1h-.2V72.9l.3-.3h46.1v.2c0 12.8-.1 23.5-.1 30.9 0 3.7 0 6.6-.1 8.6v2.3c-.1.5-.2.8-.2.8z"/><path class="st11" d="M308.8 79.1c0 .1-10.3.3-22.9.3-12.7 0-22.9-.1-22.9-.3 0-.1 10.3-.3 22.9-.3 12.6.1 22.9.2 22.9.3z"/><ellipse class="st11" cx="267" cy="76" rx=".8" ry=".7"/><path class="st11" d="M270.8 76c0 .4-.4.7-.8.7s-.8-.3-.8-.7.4-.7.8-.7.8.3.8.7zm2.9 0c0 .4-.4.7-.8.7s-.8-.3-.8-.7.4-.7.8-.7.8.3.8.7zm128.8 25.6c0-4.3 3.3-7.5 7.7-7.5 2.1 0 4 .7 5.3 2l-.7.7c-1.3-1.2-2.8-1.8-4.5-1.8-3.8 0-6.6 2.8-6.6 6.5s2.9 6.5 6.6 6.5c1.7 0 3.3-.5 4.5-1.8l.7.7c-1.3 1.4-3.2 2.1-5.3 2.1-4.5.1-7.7-3.1-7.7-7.4zm14.9 5.5l.5-.8c1 1.1 2.9 1.9 4.9 1.9 3 0 4.3-1.3 4.3-2.9 0-4.4-9.2-1.8-9.2-7.2 0-2.1 1.6-3.9 5.2-3.9 1.6 0 3.3.5 4.5 1.3l-.4.9c-1.2-.8-2.7-1.2-4.1-1.2-2.9 0-4.2 1.3-4.2 3 0 4.4 9.2 1.8 9.2 7.2 0 2.1-1.7 3.9-5.3 3.9-2.2-.2-4.3-1-5.4-2.2zm12.9 0l.5-.8c1 1.1 2.9 1.9 4.9 1.9 3 0 4.3-1.3 4.3-2.9 0-4.4-9.2-1.8-9.2-7.2 0-2.1 1.6-3.9 5.2-3.9 1.6 0 3.3.5 4.5 1.3l-.4.9c-1.2-.8-2.7-1.2-4.1-1.2-2.9 0-4.2 1.3-4.2 3 0 4.4 9.2 1.8 9.2 7.2 0 2.1-1.7 3.9-5.3 3.9-2.2-.2-4.3-1-5.4-2.2z"/><path class="st11" d="M453.6 120.8v-3.1c0-2 0-4.9-.1-8.6 0-7.4-.1-18-.1-31l.2.2c-18 0-41 0-65.9.1l.3-.3v42.6l-.2-.2c19.3 0 35.8.1 47.4.1 5.8 0 10.4 0 13.6.1h4.5c.2.1.3.1.3.1h-4.8c-3.2 0-7.8 0-13.5.1-11.7 0-28.2.1-47.6.1h-.2V77.9h.3c24.9 0 47.8 0 65.9.1h.2v.2c0 13-.1 23.7-.1 31.1 0 3.7 0 6.5-.1 8.5v2.2c-.1.6-.1.8-.1.8z"/><path class="st11" d="M453.6 84.6c0 .1-14.8.3-33 .3s-33-.1-33-.3c0-.1 14.8-.3 33-.3 18.3 0 33 .1 33 .3zm-61-3.1c0 .4-.4.7-.8.7s-.8-.3-.8-.7.4-.7.8-.7.8.3.8.7zm2.9 0c0 .4-.4.7-.8.7s-.8-.3-.8-.7.4-.7.8-.7c.5 0 .8.3.8.7zm3 0c0 .4-.4.7-.8.7s-.8-.3-.8-.7.4-.7.8-.7.8.3.8.7zm-112.6 61.4h82.7v59h-82.7z"/><path d="M313.8 170.2V182h-2.7v-4.8h-5.3v4.8h-2.7v-11.7h2.7v4.6h5.3v-4.6h2.7zm5.2 2.3h-3.7v-2.2h10.2v2.2h-3.7v9.5H319v-9.5zm7.9-2.3h2.7v9.5h5.9v2.2h-8.6v-11.7zm20.8 11.8v-7l-3.4 5.8H343l-3.4-5.6v6.9H337v-11.7h2.2l4.4 7.3 4.3-7.3h2.2v11.7h-2.4zm21.6-30.4c0 .1-18.7.3-41.7.3-23 0-41.7-.1-41.7-.3 0-.1 18.7-.3 41.7-.3 23 0 41.7.2 41.7.3zm-76.6-4.3c0 .5-.5 1-1.1 1-.6 0-1.1-.4-1.1-1s.5-1 1.1-1c.6 0 1.1.5 1.1 1zm4 0c0 .5-.5 1-1.1 1-.6 0-1.1-.4-1.1-1s.5-1 1.1-1c.6 0 1.1.5 1.1 1zm4.1 0c0 .5-.5 1-1.1 1-.6 0-1.1-.4-1.1-1s.5-1 1.1-1c.6 0 1.1.5 1.1 1z" fill="#fff"/><path class="st8" d="M115.4 259v-2.9c0-1.9 0-4.6-.1-8.1 0-6.9-.1-16.8-.1-28.6l.2.2H75.9l.3-.3v39.5l-.2-.2c11.8 0 21.7.1 28.6.1 3.5 0 6.2 0 8.1.1h2.7c-.1.2 0 .2 0 .2h-2.8c-1.9 0-4.6 0-8 .1-7 0-16.9.1-28.7.1h-.2v-39.7l.3-.3h39.7v.2c0 11.9-.1 21.8-.1 28.7 0 3.4 0 6.1-.1 8v2.6c-.1.2-.1.3-.1.3z"/><path class="st8" d="M115.4 219.8c.1.1-8.6 9-19.5 19.9C85 250.6 76.1 259.3 76 259.2c-.1-.1 8.6-9 19.5-19.9 10.9-10.8 19.8-19.6 19.9-19.5z"/><path class="st8" d="M114.7 258.7c-.1.1-8.8-8.5-19.5-19.3-10.7-10.7-19.2-19.5-19.1-19.6.1-.1 8.8 8.5 19.5 19.3s19.2 19.5 19.1 19.6zm83.1-28.6c0 .1-15.7.3-35.1.3-19.4 0-35.1-.1-35.1-.3 0-.1 15.7-.3 35.1-.3 19.4 0 35.1.1 35.1.3zm0 6.3c0 .1-15.7.3-35.1.3-19.4 0-35.1-.1-35.1-.3 0-.1 15.7-.3 35.1-.3 19.4 0 35.1.1 35.1.3zm0 6.3c0 .1-15.7.3-35.1.3-19.4 0-35.1-.1-35.1-.3 0-.1 15.7-.3 35.1-.3 19.4 0 35.1.1 35.1.3zm0 6.3c0 .1-15.7.3-35.1.3-19.4 0-35.1-.1-35.1-.3 0-.1 15.7-.3 35.1-.3 19.4 0 35.1.1 35.1.3zm-38.4-25.3c0 .1-7.2.3-16.1.3-8.9 0-16.1-.1-16.1-.3s7.2-.3 16.1-.3c8.9.1 16.1.2 16.1.3z"/><path class="st8" d="M63.4 207.5h44.8c28.2 0 68 .1 114.3.2h.2v63.1h-14.6l.3-.3v13.6l-.4-.4-13-13 .2.1c-51.8 0-97.8-.1-131.7-.1h-.2v-.2c0-19.6.1-35.4.1-46.3v-15.6c-.1-.7 0-1.1 0-1.1v16.8c0 10.8.1 26.6.1 46.2l-.2-.2c33.9 0 79.9 0 131.7-.1h.1l.1.1 13 13-.4.2v-13.3h14.6l-.3.3v-62.6l.2.2c-46.3-.2-86-.3-114.1-.4-14.1-.1-25.3-.1-33-.2-3.8 0-6.8 0-8.8-.1h-2.3c-.5.1-.7.1-.7.1z"/></g><g id="Desk"><path class="st6" d="M381.8 410.8h86.8v21.8h-86.8z"/><path class="st8" d="M403.2 417.9h52.9v7.6h-52.9zm-6.7 4.3c0 2.3-1.9 4.2-4.2 4.2-2.3 0-4.2-1.9-4.2-4.2 0-2.3 1.9-4.2 4.2-4.2 2.4-.1 4.2 1.8 4.2 4.2zm-5.6-23.2h69.3v11.8h-69.3z"/><path class="st11" d="M390.9 377.2h86.8V399h-86.8z"/><path class="st3" d="M403.8 398.4c-.1 0-.3-4.7-.3-10.6 0-5.9.1-10.6.3-10.6.1 0 .3 4.7.3 10.6 0 5.8-.1 10.6-.3 10.6zm-3.8 0c-.1 0-.3-4.7-.3-10.6 0-5.9.1-10.6.3-10.6.1 0 .3 4.7.3 10.6 0 5.8-.1 10.6-.3 10.6zm63.9 0c-.1 0-.3-4.7-.3-10.6 0-5.9.1-10.6.3-10.6.1 0 .3 4.7.3 10.6 0 5.8-.2 10.6-.3 10.6zm-3.8 0c-.1 0-.3-4.7-.3-10.6 0-5.9.1-10.6.3-10.6.1 0 .3 4.7.3 10.6 0 5.8-.1 10.6-.3 10.6z"/><path class="st2" d="M419.6 404.7c0-1.4 1-2.3 2.4-2.3.8 0 1.4.3 1.8.9l-.5.3c-.3-.5-.8-.7-1.3-.7-1 0-1.7.7-1.7 1.8s.7 1.8 1.7 1.8c.5 0 1-.2 1.3-.7l.5.3c-.4.6-1 .9-1.8.9-1.4.1-2.4-.9-2.4-2.3zm4.8 1.8l.3-.5c.4.3 1 .5 1.6.5.9 0 1.2-.3 1.2-.8 0-1.2-3-.3-3-2.1 0-.8.7-1.3 1.8-1.3.6 0 1.2.2 1.6.4l-.3.5c-.4-.3-.9-.4-1.4-.4-.8 0-1.2.3-1.2.8 0 1.2 3 .3 3 2.1 0 .8-.7 1.3-1.9 1.3-.6.1-1.3-.2-1.7-.5zm4.3 0l.3-.5c.4.3 1 .5 1.6.5.9 0 1.2-.3 1.2-.8 0-1.2-3-.3-3-2.1 0-.8.7-1.3 1.8-1.3.6 0 1.2.2 1.6.4l-.3.5c-.4-.3-.9-.4-1.4-.4-.8 0-1.2.3-1.2.8 0 1.2 3 .3 3 2.1 0 .8-.7 1.3-1.9 1.3-.6.1-1.3-.2-1.7-.5z"/><circle class="st2" cx="401.1" cy="404.9" r="2.1"/><circle class="st2" cx="453.7" cy="404.9" r="2.1"/><path class="st8" d="M189.5 409.7H43.6c-6.6 0-12-5.4-12-12V306c0-6.6 5.4-12 12-12h145.8c6.6 0 12 5.4 12 12v91.7c.1 6.6-5.3 12-11.9 12z"/><path class="st6" d="M88.2 382.2l-9.4 53.2h44.1l8-54.3z"/><path class="st6" d="M182.7 409.7H36.9c-6.6 0-12-5.4-12-12V306c0-6.6 5.4-12 12-12h145.8c6.6 0 12 5.4 12 12v91.7c0 6.6-5.3 12-12 12z"/><path class="st8" d="M126.7 409.7l4.2-28.6 1.2 28.6zm-38.3-30.4c.1 0-.9 7.1-2.4 15.8-1.5 8.7-2.8 15.8-2.9 15.7-.1 0 .9-7.1 2.4-15.8 1.5-8.7 2.8-15.8 2.9-15.7z"/><path class="st3" d="M115.4 347.8c0 3.1-2.5 5.6-5.6 5.6-3.1 0-5.6-2.5-5.6-5.6 0-3.1 2.5-5.6 5.6-5.6 3.1.1 5.6 2.6 5.6 5.6z"/><path class="st8" d="M109.8 353.4c-3.1 0-5.6-2.5-5.6-5.6 0-3.1 2.5-5.6 5.6-5.6 3.1 0 5.6 2.5 5.6 5.6 0 3.1-2.5 5.6-5.6 5.6zm0-11.1c-3.1 0-5.5 2.5-5.5 5.5 0 3.1 2.5 5.5 5.5 5.5 3.1 0 5.5-2.5 5.5-5.5.1-3-2.4-5.5-5.5-5.5z"/><path class="st6" d="M162.3 425.8h96.6v6.8h-96.6zm-10.6 6.8h-20.3v-1.7c0-4.3 3.5-7.8 7.8-7.8h4.8c4.3 0 7.8 3.5 7.8 7.8v1.7z"/><path class="st8" d="M151.4 430.5c0 .1-4.4.3-9.8.3s-9.8-.1-9.8-.3 4.4-.3 9.8-.3 9.8.2 9.8.3z"/><path class="st8" d="M141.8 423.1c.1 0 .2 1.6.2 3.6-.1 2-.2 3.6-.4 3.6-.1 0-.2-1.6-.2-3.6.1-2 .2-3.6.4-3.6zm-124.1 9.5h464.6v13.5H17.7z"/><defs><path id="SVGID_1_" d="M545.8 87.9h127v178h-127z"/></defs><clipPath id="SVGID_00000008856410407481763170000006129265415699618461_"><use xlink:href="#SVGID_1_" overflow="visible"/></clipPath><g clip-path="url(#SVGID_00000008856410407481763170000006129265415699618461_)"><image width="127" height="178" xlink:href="175F8621.jpg" transform="translate(545.794 87.875)" overflow="visible"/></g></g></svg>